<svg xmlns="http://www.w3.org/2000/svg" version="1.1" xmlns:xlink="http://www.w3.org/1999/xlink" xmlns:svgjs="http://svgjs.com/svgjs" width="512" height="512" x="0" y="0" viewBox="0 0 200 200" style="enable-background:new 0 0 512 512" xml:space="preserve" class=""><g><path d="M100 0a100 100 0 1 0 100 100A100 100 0 0 0 100 0zM70.89 92.11a4 4 0 0 1 5.66 0L96 111.56V55a4 4 0 0 1 8 0v56.56l19.45-19.45a4 4 0 1 1 5.65 5.66l-26.27 26.28a4 4 0 0 1-5.66 0L70.89 97.77a4 4 0 0 1 0-5.66zm77.87 41.67A15.24 15.24 0 0 1 133.54 149H66.46a15.24 15.24 0 0 1-15.22-15.22v-8.28a4 4 0 0 1 8 0v8.28a7.23 7.23 0 0 0 7.22 7.22h67.08a7.23 7.23 0 0 0 7.22-7.22v-8.28a4 4 0 0 1 8 0z" fill="#000000" data-original="#000000" class=""></path></g></svg>