<svg width="130" height="80" viewBox="0 0 130 80" fill="none" xmlns="http://www.w3.org/2000/svg">
<g clip-path="url(#clip0_1416_9798)">
<path d="M121.208 30.8578V30.9204L121.161 30.8696C121.181 30.8657 121.192 30.8618 121.208 30.8578Z" fill="black"/>
<path d="M121.931 29.3145C121.951 26.4038 122.063 23.4891 121.951 20.5823C121.892 19.0331 121.103 17.789 119.618 16.9322C118.098 16.1342 116.421 15.684 114.708 15.6138C108.055 15.1169 101.419 14.4675 94.7707 14.0137C88.0836 13.5559 81.3459 13.552 74.6355 13.7046C64.1266 13.9432 53.6411 13.1843 43.1439 13.1373C32.3434 13.0865 21.508 12.4292 10.7892 14.5536C9.65004 14.7805 9.30402 15.1834 9.26903 16.2906C8.99688 25.4022 9.41677 34.5295 8.542 43.6372C8.05213 48.7232 8.81415 53.8795 8.08712 58.985C7.9245 60.3441 8.01014 61.7217 8.33983 63.0498C8.79082 65.0333 10.0349 66.3752 11.9633 66.8369C13.8515 67.2656 15.768 67.5558 17.6979 67.7054C18.0517 67.7328 18.4094 67.7641 18.7671 67.7876C19.2141 67.9941 19.7118 68.0635 20.1978 67.9871C35.1077 67.9519 61.6773 67.9167 76.5833 67.8384C80.5839 67.8189 84.5962 67.8189 88.5773 67.5098C93.9814 67.0873 99.3778 66.9347 104.794 66.9269C108.518 66.923 112.274 67.3729 115.944 66.1992C117.417 65.7297 118.42 64.8729 118.848 63.4371C119.96 59.7048 119.754 55.9374 119.389 52.1581C120.154 45.5758 122.269 34.1207 121.931 29.3145ZM121.224 30.8559C121.216 30.9615 121.208 31.0672 121.196 31.1728C121.068 32.3739 120.944 33.5593 120.699 34.7642C120.166 37.362 119.105 47.3265 119.019 52.6315C118.767 55.6606 117.926 58.6103 116.543 61.3128C115.275 63.7032 113.444 65.2368 110.516 65.4089C100.809 65.984 91.085 66.1836 81.377 66.7313C73.1387 67.1968 64.8614 67.0247 56.6036 67.0716C48.513 67.1225 28.8755 67.0873 20.6721 67.1107C20.1395 67.056 19.6107 67.0051 19.082 66.9347C17.3575 66.7515 15.6719 66.2988 14.0861 65.5928C10.6803 63.9809 9.42843 60.8511 9.28069 57.4553C9.07464 52.7567 9.01632 48.062 9.67336 43.3243C10.2799 38.9895 9.91053 34.5178 9.98828 30.1048C10.0622 25.59 9.93774 21.0714 10.6181 16.5801C10.7348 15.8094 10.9797 15.5238 11.7689 15.3751C15.649 14.6396 19.5641 14.5379 23.4869 14.5927C46.1881 14.9135 68.897 14.0528 91.5982 15.1873C98.6702 15.5394 105.719 16.2163 112.803 16.4236C114.661 16.5004 116.493 16.8864 118.226 17.566C120.244 18.3406 121.173 19.7373 121.212 21.7717C121.266 24.7997 121.216 27.8317 121.208 30.8598C121.212 30.8579 121.22 30.854 121.224 30.854V30.8559Z" fill="black"/>
<path d="M121.079 30.9185L121.032 30.8676C121.052 30.8637 121.063 30.8598 121.079 30.8559C121.087 27.8278 121.137 24.7958 121.083 21.7677C121.044 19.7334 120.115 18.3367 118.097 17.5621C116.364 16.8825 114.532 16.4964 112.673 16.4197C105.59 16.2123 98.541 15.5355 91.469 15.1834C68.7678 14.0488 46.0589 14.9095 23.3577 14.5887C19.4349 14.534 15.5198 14.6357 11.6397 15.3712C10.8505 15.5199 10.6056 15.8055 10.4889 16.5762C9.80856 21.0674 9.93298 25.5861 9.85911 30.1008C9.78135 34.5138 10.1507 38.9855 9.54419 43.3203C8.88715 48.0581 8.94546 52.7528 9.15152 57.4514C9.29925 60.8472 10.5511 63.977 13.9569 65.5889C15.5427 66.2948 17.2283 66.7476 18.9528 66.9308C19.4815 67.0012 20.0103 67.052 20.5429 67.1068C28.7463 67.0833 48.3838 67.1186 56.4745 67.0677C64.7323 67.0207 73.0095 67.1929 81.2478 66.7273C90.9558 66.1796 100.679 65.9801 110.387 65.405C113.315 65.2328 115.146 63.6992 116.413 61.3088C117.796 58.6064 118.638 55.6567 118.89 52.6276C118.976 47.3226 120.037 37.358 120.57 34.7603C120.815 33.5553 120.939 32.3699 121.067 31.1689C121.079 31.0632 121.087 30.9576 121.094 30.852C121.091 30.852 121.083 30.8559 121.079 30.8559V30.9185Z" fill="#EDD691"/>
<path d="M64.9768 40.4804C64.9962 40.4765 65.0079 40.4726 65.0235 40.4687V40.5313L64.9768 40.4804Z" fill="black"/>
<path d="M121.931 29.3145C121.951 26.4038 122.063 23.4891 121.951 20.5823C121.892 19.0331 121.103 17.789 119.618 16.9322C118.098 16.1342 116.421 15.684 114.708 15.6138C108.055 15.1169 101.419 14.4675 94.7707 14.0137C88.0836 13.5559 81.3459 13.552 74.6355 13.7046C64.1266 13.9432 53.6411 13.1843 43.1439 13.1373C32.3434 13.0865 21.508 12.4292 10.7892 14.5536C9.65004 14.7805 9.30402 15.1834 9.26903 16.2906C8.99688 25.4022 9.41677 34.5295 8.542 43.6372C8.05213 48.7232 8.81415 53.8795 8.08712 58.985C7.9245 60.3441 8.01014 61.7217 8.33983 63.0498C8.79082 65.0333 10.0349 66.3752 11.9633 66.8369C13.8515 67.2656 15.768 67.5558 17.6979 67.7054C18.0517 67.7328 18.4094 67.7641 18.7671 67.7876C19.2141 67.9941 19.7118 68.0635 20.1978 67.9871C35.1077 67.9519 61.6773 67.9167 76.5833 67.8384C80.5839 67.8189 84.5962 67.8189 88.5773 67.5098C93.9814 67.0873 99.3778 66.9347 104.794 66.9269C108.518 66.923 112.274 67.3729 115.944 66.1992C117.417 65.7297 118.42 64.8729 118.848 63.4371C119.96 59.7048 119.754 55.9374 119.389 52.1581C120.154 45.5758 122.269 34.1207 121.931 29.3145ZM121.224 30.8559C121.216 30.9615 121.208 31.0672 121.196 31.1728C121.068 32.3739 120.944 33.5593 120.699 34.7642C120.166 37.362 119.105 47.3265 119.019 52.6315C118.767 55.6606 117.926 58.6103 116.543 61.3128C115.275 63.7032 113.444 65.2368 110.516 65.4089C100.809 65.984 91.085 66.1836 81.377 66.7313C73.1387 67.1968 64.8614 67.0247 56.6036 67.0716C48.513 67.1225 28.8755 67.0873 20.6721 67.1107C20.1395 67.056 19.6107 67.0051 19.082 66.9347C17.3575 66.7515 15.6719 66.2988 14.0861 65.5928C10.6803 63.9809 9.42843 60.8511 9.28069 57.4553C9.07464 52.7567 9.01632 48.062 9.67336 43.3243C10.2799 38.9895 9.91053 34.5178 9.98828 30.1048C10.0622 25.59 9.93774 21.0714 10.6181 16.5801C10.7348 15.8094 10.9797 15.5238 11.7689 15.3751C15.649 14.6396 19.5641 14.5379 23.4869 14.5927C46.1881 14.9135 68.897 14.0528 91.5982 15.1873C98.6702 15.5394 105.719 16.2163 112.803 16.4236C114.661 16.5004 116.493 16.8864 118.226 17.566C120.244 18.3406 121.173 19.7373 121.212 21.7717C121.266 24.7997 121.216 27.8317 121.208 30.8598C121.212 30.8579 121.22 30.854 121.224 30.854V30.8559Z" fill="black"/>
<path d="M27.1863 43.1455H32.5251V37.8549H27.1863V33.526H32.8874V28.0626H23.5955V52.937H32.9838V47.4744H27.1863V43.1455Z" fill="black"/>
<path d="M44.2076 41.9902L38.6219 28.0626H35.208V52.903H38.6476V38.0513L44.596 52.937H47.648V28.0626H44.2076V41.9902Z" fill="black"/>
<path d="M56.0615 45.4423C56.1299 45.4928 58.2215 45.4423 58.2215 45.4423V47.9544C58.1916 48.3483 58.54 49.3428 55.3026 49.0842C54.4169 49.0134 53.8753 48.6418 53.8753 47.6864V46.3508C53.8683 42.8352 53.8683 39.3184 53.8753 35.8002C53.8784 34.8037 54.1059 32.1102 56.077 31.9431C58.7044 31.7201 58.2111 35.1766 58.3215 36.1898L61.2171 36.2106C61.3062 34.6246 61.4022 31.1117 59.5741 29.4886C58.596 28.5738 57.3105 28.0646 55.9752 28.0629H55.9522C55.3861 28.0621 54.8229 28.1444 54.2804 28.3074C52.8772 28.7818 51.7116 29.7856 51.029 31.1074C50.5043 32.029 50.2045 33.0628 50.1543 34.1238C50.1321 36.3722 50.1885 45.2287 50.0672 47.4458V47.4654C49.809 52.0157 52.55 52.8165 55.7306 52.8427C56.9852 52.8599 58.2269 52.5863 59.3595 52.0431L59.3634 52.0392L59.3832 52.0282C59.9683 51.7077 60.4563 51.2339 60.7956 50.657C61.1348 50.0801 61.3127 49.4216 61.3105 48.7513V40.66H56.0619L56.0615 45.4423Z" fill="black"/>
<path d="M67.4181 28.0626H63.8257V52.937H72.566V47.3711H67.4181V28.0626Z" fill="black"/>
<path d="M78.4767 28.0629H74.8843V52.9374H78.4767V28.0629Z" fill="black"/>
<path d="M102.814 28.2703V37.9125H97.273V28.2703H93.6807V52.9375H97.273V43.2953H102.814V52.9375H106.406V28.2703H102.814Z" fill="black"/>
<path d="M89.8673 41.4424C88.6621 40.063 87.5638 38.6561 86.3947 37.288C86.2788 37.1576 86.1665 37.0262 86.0576 36.8937C85.4173 36.121 85.1452 35.4031 85.3683 34.4743C85.637 33.3582 86.813 33.8836 87.0113 34.2662C87.2972 34.9119 87.4519 35.6087 87.4662 36.3154V37.1139H91.2646C91.2646 37.1139 91.267 35.9571 91.2526 35.4407C91.2312 34.6762 91.2417 28.0629 85.9041 28.0629C84.8976 28.089 83.9187 28.3998 83.0795 28.9596C82.3063 29.5479 81.736 30.3657 81.4494 31.2976C81.0524 32.341 81.0217 33.247 81.0217 34.5764C81.0271 35.4977 81.1868 36.4115 81.4941 37.2794C82.2961 39.484 84.3112 41.5512 85.2315 42.3622C88.7111 45.4294 87.5195 47.7611 87.5016 47.8351C87.035 49.7079 85.2128 48.9305 85.1864 47.5142V45.091H81.0081V47.5142C81.0081 47.5142 80.4012 53.1256 86.3131 52.9323C87.398 52.8842 88.4446 52.5145 89.3215 51.8698C90.1929 51.1113 90.8418 50.1277 91.1981 49.0252C91.6064 47.862 91.4415 46.5362 91.4415 45.091C91.4408 44.8821 91.4407 43.2476 89.8673 41.4424Z" fill="black"/>
</g>
<defs>
<clipPath id="clip0_1416_9798">
<rect width="114" height="55" fill="white" transform="translate(8 13)"/>
</clipPath>
</defs>
</svg>
