<svg xmlns="http://www.w3.org/2000/svg" version="1.1" xmlns:xlink="http://www.w3.org/1999/xlink" xmlns:svgjs="http://svgjs.com/svgjs" width="512" height="512" x="0" y="0" viewBox="0 0 24 24" style="enable-background:new 0 0 512 512" xml:space="preserve"><g><path d="M5.7 5.344a4.714 4.714 0 0 1 6.6 0 1 1 0 0 0 1.4-1.425 6.721 6.721 0 0 0-9.4 0 1 1 0 0 0 1.4 1.425z" fill="#FFDD83" data-original="#FFDD83"></path><path d="M6.7 6.287a1 1 0 1 0 1.4 1.425 1.283 1.283 0 0 1 1.8 0 1 1 0 1 0 1.4-1.425 3.29 3.29 0 0 0-4.6 0zM21.56 10.17a1.021 1.021 0 0 0-.93-.1l-3.722 1.09A3.991 3.991 0 0 1 17 12v7a3.991 3.991 0 0 1-.092.84l3.722 1.09A.937.937 0 0 0 21 21a1.023 1.023 0 0 0 .56-.17A1 1 0 0 0 22 20v-9a1 1 0 0 0-.44-.83z" fill="#FFDD83" data-original="#FFDD83"></path><rect width="14" height="13" x="2" y="9" rx="3" fill="#FFDD83" data-original="#FFDD83"></rect></g></svg>