<svg width="150" height="150" viewBox="0 0 150 150" fill="none" xmlns="http://www.w3.org/2000/svg">
<path d="M75 150C116.421 150 150 116.421 150 75C150 33.5786 116.421 0 75 0C33.5786 0 0 33.5786 0 75C0 116.421 33.5786 150 75 150Z" fill="#82B1CF" fill-opacity="0.5"/>
<path d="M123.196 56.393C125.439 56.393 127.257 54.5748 127.257 52.332C127.257 50.0892 125.439 48.271 123.196 48.271C120.953 48.271 119.135 50.0892 119.135 52.332C119.135 54.5748 120.953 56.393 123.196 56.393Z" fill="white" fill-opacity="0.5"/>
<path d="M132.866 46.7248C135.964 46.7248 138.475 44.2136 138.475 41.1158C138.475 38.0181 135.964 35.5068 132.866 35.5068C129.768 35.5068 127.257 38.0181 127.257 41.1158C127.257 44.2136 129.768 46.7248 132.866 46.7248Z" fill="white" fill-opacity="0.5"/>
<path d="M119.134 40.1482C119.988 40.1482 120.681 39.4556 120.681 38.6012C120.681 37.7468 119.988 37.0542 119.134 37.0542C118.28 37.0542 117.587 37.7468 117.587 38.6012C117.587 39.4556 118.28 40.1482 119.134 40.1482Z" fill="white" fill-opacity="0.5"/>
<path fill-rule="evenodd" clip-rule="evenodd" d="M49.218 109.766H91.118L107.853 93.0309V30.6089H49.218V109.766Z" fill="#82B1CF"/>
<path fill-rule="evenodd" clip-rule="evenodd" d="M86.509 114.767V98.0308H103.245L86.509 114.767Z" fill="#82B1CF"/>
<path fill-rule="evenodd" clip-rule="evenodd" d="M44.61 98.677C45.0367 98.677 45.446 98.5075 45.7477 98.2057C46.0495 97.904 46.219 97.4947 46.219 97.068V37.218H101.636V40.436C101.636 40.8627 101.805 41.272 102.107 41.5737C102.409 41.8755 102.818 42.045 103.245 42.045C103.672 42.045 104.081 41.8755 104.383 41.5737C104.684 41.272 104.854 40.8627 104.854 40.436V35.609C104.854 35.1823 104.684 34.773 104.383 34.4713C104.081 34.1695 103.672 34 103.245 34H44.61C44.1832 34 43.774 34.1695 43.4722 34.4713C43.1705 34.773 43.001 35.1823 43.001 35.609V97.068C43.001 97.4947 43.1705 97.904 43.4722 98.2057C43.774 98.5075 44.1832 98.677 44.61 98.677V98.677Z" fill="#535C7D"/>
<path fill-rule="evenodd" clip-rule="evenodd" d="M91.841 51.364C91.6917 51.2146 91.5144 51.096 91.3192 51.0151C91.124 50.9342 90.9148 50.8926 90.7035 50.8926C90.4922 50.8926 90.283 50.9342 90.0878 51.0151C89.8927 51.096 89.7153 51.2146 89.566 51.364L85.93 55L82.294 51.364C81.9903 51.0724 81.5843 50.9114 81.1633 50.9157C80.7422 50.92 80.3396 51.0892 80.0419 51.3869C79.7441 51.6846 79.575 52.0872 79.5707 52.5083C79.5664 52.9293 79.7274 53.3353 80.019 53.639L83.655 57.275L80.019 60.911C79.7274 61.2148 79.5664 61.6207 79.5707 62.0418C79.575 62.4628 79.7441 62.8654 80.0419 63.1631C80.3396 63.4609 80.7422 63.6301 81.1633 63.6343C81.5843 63.6386 81.9903 63.4777 82.294 63.186L85.93 59.55L89.566 63.186C89.7142 63.3404 89.8918 63.4637 90.0883 63.5486C90.2848 63.6335 90.4962 63.6784 90.7103 63.6806C90.9243 63.6827 91.1366 63.6422 91.3348 63.5613C91.533 63.4804 91.713 63.3607 91.8644 63.2094C92.0157 63.058 92.1353 62.878 92.2163 62.6798C92.2972 62.4816 92.3377 62.2693 92.3355 62.0553C92.3334 61.8413 92.2885 61.6298 92.2036 61.4333C92.1187 61.2368 91.9954 61.0593 91.841 60.911L88.205 57.275L91.841 53.639C91.9905 53.4897 92.109 53.3124 92.1899 53.1172C92.2708 52.922 92.3124 52.7128 92.3124 52.5015C92.3124 52.2902 92.2708 52.081 92.1899 51.8859C92.109 51.6907 91.9905 51.5134 91.841 51.364V51.364Z" fill="#535C7D"/>
<path fill-rule="evenodd" clip-rule="evenodd" d="M58.16 83.6828C62.7484 80.3666 68.2657 78.5816 73.927 78.5816C79.5884 78.5816 85.1056 80.3666 89.694 83.6828C90.0263 83.9506 90.4514 84.0753 90.8757 84.0297C91.3 83.984 91.6888 83.7716 91.9565 83.4393C92.2243 83.107 92.349 82.682 92.3033 82.2577C92.2577 81.8334 92.0453 81.4446 91.713 81.1768C86.5521 77.3995 80.3226 75.3633 73.927 75.3633C67.5314 75.3633 61.3019 77.3995 56.141 81.1768C55.8087 81.4446 55.5964 81.8334 55.5507 82.2577C55.505 82.682 55.6298 83.107 55.8975 83.4393C56.1652 83.7716 56.554 83.984 56.9783 84.0297C57.4026 84.0753 57.8277 83.9506 58.16 83.6828V83.6828Z" fill="#535C7D"/>
<path fill-rule="evenodd" clip-rule="evenodd" d="M56.014 63.1858C56.3157 63.4874 56.7249 63.6568 57.1515 63.6568C57.5781 63.6568 57.9873 63.4874 58.289 63.1858L61.925 59.5498L65.561 63.1858C65.7104 63.3352 65.8877 63.4538 66.0829 63.5347C66.2781 63.6156 66.4873 63.6573 66.6986 63.6573C66.9099 63.6573 67.1192 63.6158 67.3144 63.535C67.5096 63.4541 67.687 63.3357 67.8365 63.1863C67.9859 63.0369 68.1045 62.8595 68.1854 62.6644C68.2663 62.4692 68.308 62.2599 68.308 62.0486C68.3081 61.8373 68.2665 61.6281 68.1857 61.4329C68.1048 61.2376 67.9864 61.0602 67.837 60.9108L64.201 57.2748L67.837 53.6388C68.1387 53.337 68.3081 52.9277 68.308 52.5009C68.3079 52.0742 68.1383 51.665 67.8365 51.3633C67.5347 51.0616 67.1254 50.8922 66.6986 50.8923C66.2719 50.8924 65.8627 51.062 65.561 51.3638L61.924 54.9998L58.293 51.3628C58.1447 51.2084 57.9672 51.0851 57.7707 51.0002C57.5742 50.9153 57.3628 50.8704 57.1487 50.8682C56.9347 50.8661 56.7224 50.9066 56.5242 50.9875C56.326 51.0684 56.146 51.1881 55.9946 51.3394C55.8433 51.4908 55.7237 51.6708 55.6428 51.869C55.5618 52.0672 55.5213 52.2795 55.5235 52.4935C55.5256 52.7076 55.5705 52.919 55.6554 53.1155C55.7403 53.312 55.8636 53.4895 56.018 53.6378L59.654 57.2738L56.018 60.9098C55.8682 61.0589 55.7493 61.2361 55.6681 61.4313C55.5868 61.6264 55.5448 61.8356 55.5445 62.047C55.5441 62.2583 55.5854 62.4677 55.6659 62.6631C55.7465 62.8585 55.8648 63.0361 56.014 63.1858V63.1858Z" fill="#535C7D"/>
<path fill-rule="evenodd" clip-rule="evenodd" d="M44.61 105.112C44.928 105.112 45.2389 105.018 45.5034 104.841C45.7679 104.665 45.9741 104.414 46.096 104.12C46.2179 103.826 46.2501 103.503 46.1884 103.191C46.1267 102.879 45.974 102.592 45.7495 102.367C45.5249 102.142 45.2387 101.988 44.9269 101.926C44.6151 101.863 44.2918 101.894 43.9977 102.015C43.7036 102.136 43.452 102.342 43.2746 102.606C43.0972 102.869 43.002 103.18 43.001 103.498C43.0004 103.925 43.1696 104.335 43.4714 104.638C43.7731 104.941 44.1826 105.111 44.61 105.112V105.112Z" fill="#535C7D"/>
<path fill-rule="evenodd" clip-rule="evenodd" d="M103.245 45.2588C102.927 45.2588 102.616 45.3532 102.351 45.53C102.086 45.7068 101.88 45.958 101.758 46.2521C101.637 46.5461 101.605 46.8696 101.667 47.1817C101.729 47.4938 101.882 47.7805 102.107 48.0055C102.332 48.2305 102.619 48.3838 102.931 48.4459C103.243 48.508 103.567 48.4761 103.861 48.3543C104.155 48.2325 104.406 48.0263 104.583 47.7617C104.76 47.4971 104.854 47.186 104.854 46.8678C104.853 46.4413 104.683 46.0325 104.382 45.7309C104.08 45.4294 103.671 45.2596 103.245 45.2588V45.2588Z" fill="#535C7D"/>
</svg>
