<svg xmlns="http://www.w3.org/2000/svg" version="1.1" xmlns:xlink="http://www.w3.org/1999/xlink"
    xmlns:svgjs="http://svgjs.com/svgjs" width="512" height="512" x="0" y="0" viewBox="0 0 512 512"
    style="enable-background:new 0 0 512 512" xml:space="preserve"><g><path d="M111.71 312.113H55.597c-13.282 0-24.048-10.767-24.048-24.048 0-13.282 10.767-24.048 24.048-24.048h56.113v48.096z" style="" fill="#FFD05B" data-original="#ffd05b"></path><path d="M472.435 7.5H135.758a8.016 8.016 0 0 0-8.016 8.016v456.919h344.694a8.016 8.016 0 0 0 8.016-8.016V15.516a8.016 8.016 0 0 0-8.017-8.016z" style="" fill="#FFE077" data-original="#ffe077"></path><path d="M472.435 7.5h-16.623v408.823h-23.457v56.113h40.081a8.016 8.016 0 0 0 8.016-8.016V15.516a8.017 8.017 0 0 0-8.017-8.016z" style="" fill="#FFD05B" data-original="#ffd05b"></path><path d="M372.922 44.26a16.033 16.033 0 0 0-11.337-4.696H103.694a8.016 8.016 0 0 0-8.016 8.016v448.903a8.016 8.016 0 0 0 8.016 8.016h336.677l3.32-389.47-70.769-70.769z" style="" fill="#ECEAEC" data-original="#eceaec"></path><path d="M352.194 312.113H55.597c-13.282 0-24.048-10.767-24.048-24.048v144.29c0 13.282 10.767 24.048 24.048 24.048h296.597c8.854 0 16.032-7.178 16.032-16.032V328.145c0-8.855-7.178-16.032-16.032-16.032z" style="" fill="#FFE077" data-original="#ffe077"></path><path d="M443.691 115.029 372.922 44.26a16.032 16.032 0 0 0-11.337-4.695h-1.375v72.145c0 8.854 7.178 16.032 16.032 16.032h48.097v304.613c0 26.563-21.534 48.097-48.097 48.097H143.774c-13.282 0-24.048 10.767-24.048 24.048h320.645a8.016 8.016 0 0 0 8.016-8.016V126.367c0-4.253-1.689-8.331-4.696-11.338z" style="" fill="#DBD8DB" data-original="#dbd8db"></path><path d="M352.194 312.113h-8.016v88.177c0 17.709-14.356 32.065-32.065 32.065H79.645c-13.282 0-24.048 10.767-24.048 24.048h296.597c8.854 0 16.032-7.178 16.032-16.032V328.145c0-8.854-7.178-16.032-16.032-16.032z" style="" fill="#FFD05B" data-original="#ffd05b"></path><path d="M272.032 272.032c-12.829 0-22.809-11.151-21.393-23.901l5.36-48.244h32.065l5.36 48.244c1.418 12.75-8.563 23.901-21.392 23.901z" style="" fill="#FFE077" data-original="#ffe077"></path><path d="M448.387 456.403v40.081a8.016 8.016 0 0 1-8.016 8.016H103.694a8.016 8.016 0 0 1-8.016-8.016v-40.081M95.677 280.048V47.581a8.016 8.016 0 0 1 8.016-8.016h257.891c4.252 0 8.33 1.689 11.337 4.696l70.77 70.77a16.031 16.031 0 0 1 4.696 11.337V424.34" style="stroke-linecap: round; stroke-linejoin: round; stroke-miterlimit: 10;" fill="none" stroke="#000000" stroke-width="15px" strokeLinecap="round" strokeLinejoin="round" strokeMiterlimit="10" data-original="#000000"></path><path d="M95.677 264.016h-40.08c-13.282 0-24.048 10.767-24.048 24.048v0c0 13.282 10.767 24.048 24.048 24.048h296.597c8.854 0 16.032 7.178 16.032 16.032V440.37c0 8.854-7.178 16.032-16.032 16.032H55.597c-13.282 0-24.048-10.767-24.048-24.048v-144.29" style="stroke-linecap: round; stroke-linejoin: round; stroke-miterlimit: 10;" fill="none" stroke="#000000" stroke-width="15px" strokeLinecap="round" strokeLinejoin="round" strokeMiterlimit="10" data-original="#000000"></path><path d="M127.742 39.565V15.516a8.016 8.016 0 0 1 8.016-8.016h336.677a8.016 8.016 0 0 1 8.016 8.016v448.903a8.016 8.016 0 0 1-8.016 8.016h-24.048" style="stroke-linecap: round; stroke-linejoin: round; stroke-miterlimit: 10;" fill="none" stroke="#000000" stroke-width="15px" strokeLinecap="round" strokeLinejoin="round" strokeMiterlimit="10" data-original="#000000"></path><path d="M360.21 39.565v72.145c0 8.854 7.178 16.032 16.032 16.032h72.145M102.598 416.323h.08M213.999 352.194v63.763M140.454 352.559h40.239l-41.547 63.764h42.538M250.39 352.559v63.764M286.492 370.553c0 9.938-8.409 17.994-18.347 17.994-4.929 0-17.631.079-17.631.079s-.079-13.064-.079-18.074c0-4.114-.044-17.994-.044-17.994h17.755c9.937.001 18.346 8.057 18.346 17.995zM272.032 272.032h0c-12.829 0-22.809-11.151-21.393-23.901l5.36-48.244h32.065l5.36 48.244c1.418 12.75-8.563 23.901-21.392 23.901zM272.032 199.887V39.565M256 167.823h32.065M256 135.758h32.065M256 103.694h32.065M256 71.629h32.065" style="stroke-linecap: round; stroke-linejoin: round; stroke-miterlimit: 10;" fill="none" stroke="#000000" stroke-width="15px" strokeLinecap="round" strokeLinejoin="round" strokeMiterlimit="10" data-original="#000000"></path></g></svg>