<svg xmlns="http://www.w3.org/2000/svg" version="1.1" xmlns:xlink="http://www.w3.org/1999/xlink" xmlns:svgjs="http://svgjs.com/svgjs" width="512" height="512" x="0" y="0" viewBox="0 0 24 24" style="enable-background:new 0 0 512 512" xml:space="preserve" class=""><defs><linearGradient xmlns="http://www.w3.org/2000/svg" id="paint0_linear_16_630" gradientUnits="userSpaceOnUse" x1="12" x2="12" y1="0" y2="24"><stop stop-opacity="1" stop-color="#000000" offset="0.979167"></stop><stop stop-opacity="1" stop-color="#ce9ffc" offset="1"></stop></linearGradient><linearGradient xmlns="http://www.w3.org/2000/svg" id="paint0_linear_16_630" gradientUnits="userSpaceOnUse" x1="12" x2="12" y1="0" y2="24"><stop stop-opacity="1" stop-color="#000000" offset="0.979167"></stop><stop stop-opacity="1" stop-color="#ce9ffc" offset="1"></stop></linearGradient></defs><g><linearGradient xmlns="http://www.w3.org/2000/svg" id="paint0_linear_16_630" gradientUnits="userSpaceOnUse" x1="12" x2="12" y1="0" y2="24"><stop stop-opacity="1" stop-color="#000000" offset="0.979167"></stop><stop stop-opacity="1" stop-color="#ce9ffc" offset="1"></stop></linearGradient><path xmlns="http://www.w3.org/2000/svg" d="m19 9h-5v-5h-9v7.857l1.5 1.393 3.5-3.75 3 5 2-2.5 3 3-3-.5-2 2.5-3-4-3 3.5-2-1.25v4.75h14zm2-1v12.993c.0009.1313-.024.2615-.0734.3832s-.1223.2325-.2145.326-.202.1679-.3229.219c-.121.0511-.2509.0779-.3822.0788h-16.014c-.26319 0-.51561-.1045-.7018-.2905-.1862-.186-.29093-.4383-.2912-.7015v-18.016c0-.537.449-.992 1.002-.992h10.995z" fill="url(&quot;#paint0_linear_16_630&quot;)" data-original="url(#paint0_linear_16_630)" class=""></path></g></svg>