<svg width="273" height="303" viewBox="0 0 273 303" fill="none" xmlns="http://www.w3.org/2000/svg">
<g clip-path="url(#clip0_4709_14841)">
<path d="M13.9316 277.372C13.3561 280.304 12.6229 283.202 11.7354 286.055C10.6373 289.197 8.70582 294.608 7.3656 298.341C7.18553 298.851 7.13021 299.396 7.20427 299.931C7.27833 300.466 7.47962 300.975 7.79126 301.417C8.10289 301.858 8.51578 302.218 8.99531 302.467C9.47484 302.715 10.007 302.846 10.5472 302.846C11.375 302.846 59.1838 303.055 68.1712 302.711C67.1853 300.304 65.6595 298.157 63.7116 296.433C61.7637 294.71 59.4459 293.458 56.9369 292.773C55.8107 292.288 54.6845 291.787 53.5582 291.269C46.6544 287.891 36.3324 274.636 36.8223 272.935C35.5497 274.444 34.3897 276.651 32.1823 276.775" fill="#1F2563"/>
<path d="M72.7268 0.103027C86.985 1.98373 101.271 3.65047 115.524 5.65505C118.238 6.17309 120.967 6.57664 123.712 6.86569C122.197 12.0067 118.21 15.9314 114.077 19.1072C112.721 19.4877 111.318 19.6773 109.91 19.6703C108.244 19.573 106.593 19.3051 104.982 18.8707C103.997 18.561 103.017 18.2119 102.06 17.8233C99.8187 16.8566 97.6733 15.6821 95.6514 14.3153C93.5847 16.1397 91.3829 18.0936 88.6011 18.6567C86.6246 18.6117 85.0591 16.9224 83.0826 16.8886C81.1398 17.0012 80.0248 19.2536 80.5204 20.9991C81.2186 23.3022 83.4204 24.738 84.2707 26.9678C84.4172 28.1729 83.3247 30.6335 82.9024 31.7147C82.0352 31.5007 71.8202 23.0769 71.4823 13.9549C71.0656 9.332 71.2177 4.55703 72.7268 0.103027Z" fill="#23286A"/>
<path d="M107.972 22.5592C108.335 21.4446 109.002 20.4538 109.898 19.6987C108.682 19.6199 104.633 18.5387 101.919 17.7955C99.7264 16.8361 97.625 15.6808 95.6401 14.3438C93.5735 16.1681 91.3717 18.1221 88.5899 18.6851C86.6133 18.6401 85.0479 16.9508 83.0713 16.9171C81.1285 17.0297 80.0136 19.282 80.5091 21.0276C81.2074 23.3306 83.4092 24.7665 84.2595 26.9963C84.4059 28.2013 83.7527 29.3162 83.3303 30.3748L82.6546 31.6643C83.956 33.2677 85.3854 34.7629 86.9287 36.1352C89.3726 36.2534 91.7828 36.7827 94.2492 36.8503C97.3576 36.8503 99.9874 34.9921 102.623 33.5956C103.479 33.1058 104.391 32.7116 105.264 32.2555C106.441 31.6369 107.345 30.6006 107.798 29.35C107.928 28.9897 107.968 28.6032 107.916 28.2238C107.68 26.5402 107.573 23.7191 107.972 22.5592Z" fill="#FEBFB6"/>
<path d="M112.843 21.1906C112.183 20.8173 111.412 20.6905 110.668 20.8328C109.923 20.9752 109.253 21.3773 108.778 21.9677C108.451 22.3093 108.15 22.6744 107.877 23.0601C107.758 23.2515 107.556 23.1445 107.314 23.1276C106.058 23.0263 105.94 23.1896 105.196 20.1489C105.11 19.7748 104.932 19.428 104.679 19.14C104.425 18.8519 104.104 18.6316 103.743 18.4991V18.4991C103.259 18.3306 102.742 18.2779 102.233 18.3454C101.725 18.4129 101.239 18.5986 100.815 18.8876C99.95 19.4564 99.2427 20.2349 98.7593 21.1505C98.2759 22.0661 98.032 23.0891 98.0502 24.1243C97.9263 25.9093 98.2642 28.4938 100.483 28.7416C103.011 29.2371 104.397 26.8327 105.59 24.9802C105.687 24.8289 105.827 24.7098 105.992 24.638C106.156 24.5662 106.339 24.5449 106.515 24.5769C106.692 24.6089 106.855 24.6927 106.984 24.8176C107.114 24.9425 107.203 25.103 107.24 25.2786C107.449 26.2471 107.663 27.21 107.854 28.1841C107.891 28.3667 107.968 28.539 108.079 28.6888C108.19 28.8386 108.332 28.9623 108.496 29.0513V29.0513C108.93 29.3034 109.425 29.4283 109.926 29.4117C112.061 29.2991 113.806 27.3564 114.009 25.2167C114.122 23.8371 114.414 21.8607 112.843 21.1906ZM104.014 25.4363C103.394 27.2382 100.438 28.1109 99.3566 26.2415C98.7147 24.0849 99.5031 21.2413 101.834 20.4755C102.623 20.1883 103.783 19.9912 104.216 20.9429C104.63 22.4232 104.563 23.9964 104.025 25.4363H104.014ZM112.534 25.9994C112.322 26.4426 112.017 26.8345 111.638 27.1476C111.26 27.4607 110.818 27.6876 110.343 27.8125C110.181 27.8686 110.009 27.8916 109.838 27.8802C109.667 27.8687 109.499 27.8231 109.346 27.7459C109.193 27.6687 109.057 27.5616 108.945 27.4309C108.834 27.3002 108.75 27.1485 108.699 26.9848V26.951C108.474 26.2323 108.473 25.4623 108.697 24.7432C108.92 24.0241 109.357 23.3899 109.949 22.9249C110.309 22.6166 110.718 22.371 111.16 22.1985C111.335 22.1444 111.519 22.1271 111.702 22.1478C111.884 22.1684 112.06 22.2266 112.219 22.3187C112.377 22.4107 112.515 22.5346 112.624 22.6825C112.732 22.8305 112.809 22.9993 112.849 23.1783C112.993 24.1273 112.889 25.0975 112.545 25.9937L112.534 25.9994Z" fill="#B5A7C7"/>
<path d="M101.846 20.4753C102.634 20.1882 103.794 19.9911 104.228 20.9427C104.64 22.4278 104.569 24.0054 104.025 25.4474C103.406 27.2493 100.449 28.1221 99.368 26.2526C98.726 24.1129 99.5144 21.2411 101.846 20.4753Z" fill="#FCC0B6"/>
<path d="M79.6193 29.0682C80.0304 28.3756 85.3744 34.7948 86.9399 36.1574C84.9859 39.0404 84.8057 44.3222 83.0431 46.7435C78.938 45.2682 75.7958 39.1981 74.3204 35.5099L73.0196 35.2058C75.3171 33.9389 77.93 31.0334 79.6193 29.0682Z" fill="#F3AAA3"/>
<path d="M83.4092 46.0171C87.1708 46.0847 211.8 79.2392 214.796 80.3991C216.857 81.2212 219.599 81.1987 220.737 83.451C222.179 85.3486 198.775 168.179 197.801 170.791C197.306 172.098 196.361 173.185 195.135 173.857C193.91 174.529 192.485 174.742 191.117 174.457C189.872 174.204 92.5711 147.919 92.6387 147.204C93.3708 143.966 94.5533 139.748 95.2797 136.505C104.447 135.514 113.147 139.382 121.476 142.671C126.094 144.247 131.212 144.85 135.982 143.594C139.434 142.536 141.816 139.546 143.866 136.753C144.817 135.277 145.938 133.684 145.87 131.848C145.251 130.469 143.618 130.159 142.266 130.204C137.581 130.243 132.812 130.767 128.188 129.714C126.786 129.466 125.3 128.171 125.621 126.64C126.347 124.748 127.834 123.261 128.605 121.397C129.123 120.175 128.661 118.019 126.978 118.284C125.609 119.41 124.804 120.981 123.948 122.467C122.174 124.618 120.614 127.006 118.458 128.796C116.301 130.587 113.48 129.404 111.177 128.701C106.897 127.145 102.804 125.116 98.9738 122.653C99.6214 120.547 103.225 106.543 103.749 103.823C107.522 104.854 120.012 108.328 122.523 108.841C122.945 108.93 123.385 108.869 123.766 108.669C124.148 108.468 124.447 108.141 124.613 107.743C125.48 105.631 126.347 103.407 126.172 101.149C126.144 100.791 126.015 100.448 125.8 100.161C125.584 99.8742 125.292 99.6542 124.956 99.5271C123.903 99.1273 86.9399 89.0706 77.4232 86.8971C76.8732 81.6189 76.8977 76.2966 77.4964 71.0237C83.4317 72.3695 126.02 83.4116 129.506 84.0423C130.133 84.1594 130.782 84.0439 131.33 83.7174C131.878 83.3909 132.289 82.8758 132.485 82.2685C133.037 80.741 133.414 79.1563 133.611 77.5443C133.658 76.9007 133.487 76.26 133.124 75.7264C132.761 75.1928 132.228 74.7976 131.612 74.605V74.605C115.873 70.5507 81.0666 61.0515 79.3604 60.5278C80.4866 55.8992 81.0497 51.068 83.0769 46.7041C83.1276 46.5577 83.3191 46.1973 83.4092 46.0171ZM169.369 81.8519C164.969 82.6262 160.811 84.4154 157.223 87.0773C152.391 91.0921 148.28 96.2612 146.709 102.45C145.29 108.328 145.347 114.77 147.757 120.401C150.905 128.644 158.197 135.131 166.649 137.558C172.219 138.957 178.068 138.779 183.543 137.046C191.28 134.348 197.886 128.29 200.808 120.581C203.32 114.832 203.28 108.283 201.844 102.264C200.583 96.8412 197.142 92.2464 193.178 88.4681C186.781 82.7641 177.788 80.5342 169.369 81.8519V81.8519Z" fill="#D0E1FD"/>
<path d="M163.991 106.988C162.201 100.231 167.37 92.5505 174.347 91.8185C179.483 91.0978 184.573 94.1272 187.079 98.5305C189.473 103.305 188.442 109.578 184.495 113.21C182.85 114.539 180.902 115.412 179.1 116.493C181.352 118.391 184.168 119.77 185.902 122.248C186.96 123.781 187.752 125.48 188.245 127.276C186.511 127.053 184.797 126.701 183.115 126.223C175.434 123.971 167.646 122.135 159.937 119.984C157.606 119.303 155.128 118.954 153.028 117.664C156.479 113.672 162.037 113.013 166.976 113.424C166.159 111.194 164.763 109.229 163.991 106.988Z" fill="#D0E1FD"/>
<path d="M53.0232 55.7812C53.1077 59.8805 51.148 63.5575 50.354 67.4934C50.0162 69.9766 47.3639 71.2042 46.8909 73.6311C46.0068 77.0997 40.3418 97.9958 40.6966 105.243C40.6966 107.298 44.5933 114.917 43.8556 115.147C42.9547 115.435 25.1263 109.01 18.7068 106.521C12.5631 104.071 6.5434 101.256 0.546181 98.4406C-1.46978 91.2331 2.7142 82.4546 3.12527 81.548C6.43078 76.8125 11.1722 73.4621 16.0319 70.4834C20.1089 67.9777 23.4989 64.6104 26.7312 61.1024L27.9813 59.7397C29.5468 60.9898 41.4286 60.6914 44.3118 58.5685C46.8402 56.8455 49.9542 56.0966 53.0232 55.7812Z" fill="#1E2461"/>
<path d="M169.369 81.852C177.816 80.5343 186.781 82.7642 193.212 88.457C197.154 92.2353 200.617 96.83 201.878 102.253C203.314 108.272 203.354 114.821 200.842 120.57C197.919 128.278 191.314 134.337 183.577 137.034C178.102 138.768 172.253 138.945 166.683 137.547C158.236 135.12 150.916 128.633 147.791 120.39C145.364 114.759 145.307 108.328 146.726 102.45C148.297 96.2557 152.408 91.0922 157.24 87.0774C160.823 84.4179 164.975 82.6289 169.369 81.852V81.852ZM163.991 106.988C164.763 109.24 166.16 111.194 166.976 113.424C162.021 113.013 156.479 113.672 153.028 117.664C155.128 118.954 157.606 119.303 159.937 119.984C167.646 122.135 175.434 123.971 183.115 126.223C184.797 126.701 186.511 127.053 188.245 127.276C187.752 125.481 186.96 123.781 185.902 122.248C184.162 119.77 181.397 118.391 179.1 116.493C180.902 115.412 182.85 114.539 184.495 113.21C188.436 109.578 189.473 103.306 187.079 98.5306C184.573 94.1272 179.483 91.0978 174.347 91.8186C167.359 92.5506 162.201 100.237 163.991 106.988Z" fill="white"/>
<path d="M115.501 277.952C108.896 278.003 102.291 277.772 95.6908 278.081C91.4786 277.349 87.2046 278.003 82.9699 277.687C81.7592 277.642 80.8413 276.753 80.0192 275.998C74.9821 270.832 71.1866 264.587 68.9201 257.737C66.9942 253.064 66.3185 248.018 64.7868 243.226C62.8947 237.528 61.0871 231.801 58.9191 226.204C58.142 224.577 54.8534 213.428 54.02 209.498C52.8937 205.624 52.7192 201.519 51.2663 197.74C49.577 193.405 48.783 188.776 47.1499 184.412C45.5507 179.294 42.645 174.738 40.0152 170.121C37.4212 165.353 34.5207 160.758 31.3319 156.365C31.3657 158.274 31.3995 160.188 31.5065 162.103C30.1775 158.071 30.5492 153.533 28.2629 149.822C24.9479 144.027 22.4252 137.813 20.7622 131.347C18.352 123.312 18.3014 114.832 18.7012 106.521C25.1207 109.009 41.9692 112.714 42.9828 114.787C45.714 119.218 49.3517 123.481 54.4085 125.26C57.8264 126.428 60.9476 128.328 63.5536 130.829C66.6395 133.763 69.6916 136.736 72.4959 139.94C72.1862 141.471 73.2843 142.755 73.7742 144.123C74.9567 147.108 75.9591 150.16 77.198 153.133C79.67 159.467 81.4213 166.056 83.9554 172.373C87.4749 181.591 90.2736 191.051 93.5284 200.353C96.5129 210.213 99.1033 220.185 102.144 230.033C103.13 234.009 104.397 237.917 105.033 241.976C105.441 242.538 105.755 243.161 105.962 243.823C106.711 246.521 107.201 249.291 108.062 251.96L108.192 252.382C109.352 255.862 109.915 259.505 111.103 262.98C112.77 267.929 113.446 273.143 115.501 277.952Z" fill="#418DFB"/>
<path d="M90.1722 99.533C86.8892 98.1872 83.3529 97.0047 80.7963 94.4314C78.8029 92.4212 77.93 89.6339 77.4176 86.9198C76.8675 81.6417 76.8921 76.3194 77.4908 71.0465C77.8936 67.5212 78.5009 64.0223 79.3097 60.5674C80.4359 55.9389 80.999 51.1076 83.0262 46.7437C82.908 46.4115 74.8216 40.9326 74.3035 35.5101L73.0027 35.2061C68.6273 36.4899 55.5461 41.7435 53.1922 42.5656C48.8731 44.2548 36.8336 51.6538 36.1691 52.0761C34.7782 53.1009 29.1921 58.1462 27.9589 59.7848C29.5243 61.0348 41.4061 60.7364 44.2893 58.6135C56.6779 51.2596 47.3808 71.2041 46.9078 73.631C46.0237 77.0996 40.3587 97.9957 40.7135 105.243C40.7135 107.298 42.11 113.126 43.0054 114.787C45.7365 119.218 49.3743 123.481 54.4311 125.26C57.8489 126.428 60.9701 128.329 63.5761 130.829C66.662 133.763 69.7141 136.736 72.5185 139.94C75.2808 143.062 78.8593 145.351 82.8517 146.551C86.0051 147.592 89.3839 147.271 92.65 147.226C92.7063 146.967 92.8133 146.449 92.8696 146.19C93.6016 142.953 94.5589 139.771 95.291 136.528C95.3416 136.314 95.4486 135.875 95.505 135.655C96.1976 133.403 96.986 131.19 97.4928 128.898C97.932 126.809 98.36 124.72 98.9907 122.704C99.6214 120.688 103.242 106.594 103.766 103.874C99.1595 102.674 94.6215 101.225 90.1722 99.533V99.533Z" fill="#23286A"/>
<path d="M142.283 130.226C137.598 130.266 132.828 130.79 128.205 129.737C126.803 129.489 125.316 128.194 125.637 126.662C126.364 124.77 127.85 123.284 128.622 121.42C129.14 120.198 128.678 118.041 126.995 118.306C125.626 119.432 124.821 121.003 123.965 122.49C122.191 124.641 120.631 127.028 118.475 128.819C116.318 130.609 113.497 129.427 111.193 128.723C106.907 127.161 102.808 125.125 98.9737 122.653C98.343 124.691 95.3247 136.291 95.274 136.505C104.442 135.514 113.142 139.382 121.47 142.671C126.088 144.247 131.207 144.85 135.976 143.594C139.428 142.536 141.81 139.546 143.86 136.753C144.812 135.277 145.932 133.684 145.865 131.848C145.268 130.491 143.64 130.193 142.283 130.226Z" fill="#FBB9B2"/>
<path d="M270.269 202.426C268.991 203.467 268.636 201.243 268.118 200.443C263.939 189.745 240.001 137.462 237.112 127.631C237.062 127.451 237.052 127.263 237.083 127.079C237.115 126.896 237.188 126.721 237.296 126.569C237.404 126.417 237.545 126.292 237.708 126.202C237.871 126.112 238.053 126.059 238.239 126.049C239.562 125.947 240.902 126.094 241.95 127.023C245.931 129.973 270.855 191.079 272.989 198.242C273.225 200.032 271.671 201.558 270.269 202.426Z" fill="#F1F1F1"/>
<path d="M263.241 204.954C247.356 204.892 207.329 205.337 191.888 206.131C191.058 206.174 190.244 206.382 189.494 206.743C188.745 207.103 188.074 207.61 187.523 208.233C186.971 208.856 186.55 209.582 186.282 210.37C186.014 211.157 185.906 211.99 185.964 212.82C187.327 232.821 193.009 295.087 193.431 297.689C193.572 298.533 193.974 299.313 194.579 299.919C195.185 300.525 195.965 300.926 196.81 301.067C201.596 301.827 256.028 301.371 258.646 301.14C259.772 301.056 261.028 300.577 261.535 299.451C263.005 296.512 268.292 232.613 269.452 211.52C269.494 210.676 269.365 209.833 269.072 209.041C268.779 208.249 268.329 207.524 267.749 206.911C267.168 206.297 266.47 205.808 265.695 205.471C264.92 205.135 264.086 204.959 263.241 204.954V204.954Z" fill="#F1F1F1"/>
<path d="M252.666 265.643C250.802 267.896 246.426 272.845 244.664 274.737C243.791 275.492 242.975 276.612 241.736 276.697C240.609 276.376 239.787 275.48 238.948 274.732C235.733 271.578 232.675 268.256 229.375 265.159C228.615 265.959 222.364 272.8 220.072 275.48C219.188 276.381 218.107 277.733 216.694 277.237C214.61 276.066 207.605 269.703 205.521 266.268C205.354 265.987 205.284 265.659 205.322 265.334C205.361 265.009 205.506 264.706 205.735 264.472C209.384 260.728 213.09 256.983 216.125 252.709C212.746 248.942 208.174 246.318 205.206 242.23C205.011 241.962 204.9 241.642 204.886 241.31C204.872 240.979 204.956 240.65 205.127 240.366C207.481 236.616 215.624 228.615 216.238 229.105C219.126 230.856 226.695 238.114 228.339 238.981C230.811 237.523 237.856 229.944 239.545 228.513C239.854 228.266 240.243 228.141 240.638 228.163C241.033 228.185 241.406 228.352 241.685 228.632C243.797 230.259 250.836 237.191 252.148 239.054C252.795 239.916 251.984 240.901 251.478 241.6C248.487 245.322 244.534 248.182 241.826 252.152C245.452 255.981 249.355 259.556 252.671 263.673C252.894 263.953 253.014 264.301 253.013 264.659C253.012 265.017 252.89 265.364 252.666 265.643V265.643Z" fill="#D95B4F"/>
<path d="M136.01 292.046C124.748 289.124 116.391 278.769 115.501 277.969C108.896 278.02 102.291 277.789 95.6908 278.099C94.0014 282.947 91.1014 291.162 89.1417 296.709C88.9064 297.381 88.8341 298.1 88.9307 298.806C89.0272 299.512 89.2899 300.185 89.6972 300.77C90.1045 301.355 90.6448 301.835 91.2736 302.17C91.9024 302.506 92.6018 302.687 93.3144 302.7C106.266 302.88 135.295 302.796 149.097 302.66C146.242 297.66 142.086 293.623 136.01 292.046Z" fill="#1F2563"/>
<path d="M38.5849 275.137L38.6694 276.618C38.6694 276.618 5.64809 277.817 4.91604 277.851C4.13893 245.563 11.4933 234.983 13.9259 231.514C16.5275 227.64 16.1784 222.826 16.4487 218.389C17.6707 202.718 25.1996 192.977 28.4206 187.982C33.6745 181.039 32.0358 174.052 32.3624 170.324C32.1259 167.57 31.7993 164.834 31.5121 162.086C31.4052 160.171 31.3714 158.257 31.3376 156.348C34.5263 160.741 37.4268 165.336 40.0209 170.104C42.6732 174.722 45.5563 179.277 47.1556 184.395C48.7886 188.759 49.5714 193.405 51.272 197.724C52.7248 201.502 52.9107 205.607 54.0256 209.481C54.5606 212.004 46.0913 239.06 41.2428 254.201C39.0812 260.958 38.1802 268.054 38.5849 275.137V275.137Z" fill="#2C7DE6"/>
</g>
<defs>
<clipPath id="clip0_4709_14841">
<rect width="273" height="303" fill="white"/>
</clipPath>
</defs>
</svg>
