<svg xmlns="http://www.w3.org/2000/svg" version="1.1" xmlns:xlink="http://www.w3.org/1999/xlink"
    xmlns:svgjs="http://svgjs.com/svgjs" width="50" height="50" x="0" y="0" viewBox="0 0 512 512"
    style="enable-background:new 0 0 512 512" xml:space="preserve" class=""><g><path d="M419.077 504.498H46.33V69.627l62.124-62.125h310.623z" style="" fill="#FFDD83" data-original="#f2fbff" class=""></path><path d="M46.33 69.627h62.124V7.502z" style="" fill="#FFDD83" data-original="#dff6fd" class=""></path><path d="M465.67 224.938v31.124c0 17.121-13.879 31-31 31h-15.593v-62.124h46.593z" style="" fill="#FFDD83" data-original="#69a2fd" class=""></path><path d="M389.077 7.502h30v496.996h-30z" style="" fill="#FFDD83" data-original="#dff6fd" class=""></path><path d="M465.67 256c0-17.155-13.907-31.062-31.062-31.062H139.517V69.626H434.67c17.121 0 31 13.879 31 31V256z" style="" fill="#FFDD83" data-original="#7bb1ff" class=""></path><path d="M434.67 69.626h-30c17.121 0 31 13.879 31 31v124.338c16.662.561 30 14.236 30 31.035V100.626c0-17.12-13.879-31-31-31z" style="" fill="#FFDD83" data-original="#69a2fd" class=""></path><path d="M419.08 224.94v62.12h15.59c17.12 0 31-13.88 31-31V256M314.68 7.5h104.4v62.13M419.08 365.16V504.5H46.33V69.63L108.45 7.5H282M419.08 332.48V224.94" style="stroke-linecap: round; stroke-linejoin: round; stroke-miterlimit: 10;" fill="none" stroke="#FFFFFF" stroke-width="15px" strokeLinecap="round" strokeLinejoin="round" strokeMiterlimit="10" data-original="#000000" class=""></path><path d="M46.33 69.627h62.124V7.502M215.97 224.94h218.64c17.15 0 31.06 13.9 31.06 31.06V100.63c0-17.12-13.88-31-31-31H139.52v155.31h43.76" style="stroke-linecap: round; stroke-linejoin: round; stroke-miterlimit: 10;" fill="none" stroke="#FFFFFF" stroke-width="15px" strokeLinecap="round" strokeLinejoin="round" strokeMiterlimit="10" data-original="#000000" class=""></path><path d="M403.363 121.525a30.919 30.919 0 0 0-17.367-5.305c-17.155 0-31.062 13.907-31.062 31.062s13.907 31.062 31.062 31.062c6.967 0 12.698-2.294 17.048-6.168.9-.802 1.741-1.671 2.521-2.601" style="stroke-linecap: round; stroke-linejoin: round; stroke-miterlimit: 10;" fill="none" stroke="#FFFFFF" stroke-width="15px" strokeLinecap="round" strokeLinejoin="round" strokeMiterlimit="10" data-original="#000000" class=""></path><circle cx="298.34" cy="147.282" r="31.062" style="stroke-linecap: round; stroke-linejoin: round; stroke-miterlimit: 10;" transform="rotate(-76.538 298.33 147.29)" fill="none" stroke="#FFFFFF" stroke-width="15px" strokeLinecap="round" strokeLinejoin="round" strokeMiterlimit="10" data-original="#000000" class=""></circle><path d="M210.719 178.344h-11.096V116.22h11.096c17.155 0 31.062 13.907 31.062 31.062v0c0 17.155-13.907 31.062-31.062 31.062zM108.454 379.883h248.498M108.454 410.945h248.498M108.454 442.008h139.781M248.234 286.696h108.718M248.234 317.758h108.718M248.234 348.821h108.718M139.517 286.696l12.104 61.192c.445 1.253 2.221 1.241 2.649-.018l18.899-61.06M173.169 286.696l18.851 61.192c.445 1.253 2.221 1.241 2.649-.018l12.152-61.06" style="stroke-linecap: round; stroke-linejoin: round; stroke-miterlimit: 10;" fill="none" stroke="#FFFFFF" stroke-width="15px" strokeLinecap="round" strokeLinejoin="round" strokeMiterlimit="10" data-original="#000000" class=""></path></g></svg>