<svg width="150" height="150" viewBox="0 0 150 150" fill="none" xmlns="http://www.w3.org/2000/svg">
<path d="M75 150C116.421 150 150 116.421 150 75C150 33.5786 116.421 0 75 0C33.5786 0 0 33.5786 0 75C0 116.421 33.5786 150 75 150Z" fill="#82B1CF" fill-opacity="0.5"/>
<path d="M122.815 56.6839C125.051 56.6839 126.864 54.8711 126.864 52.6349C126.864 50.3987 125.051 48.5859 122.815 48.5859C120.579 48.5859 118.766 50.3987 118.766 52.6349C118.766 54.8711 120.579 56.6839 122.815 56.6839Z" fill="white"/>
<path d="M132.455 47.0428C135.543 47.0428 138.046 44.5397 138.046 41.4518C138.046 38.364 135.543 35.8608 132.455 35.8608C129.367 35.8608 126.864 38.364 126.864 41.4518C126.864 44.5397 129.367 47.0428 132.455 47.0428Z" fill="white"/>
<path d="M118.766 40.4878C119.618 40.4878 120.308 39.7974 120.308 38.9458C120.308 38.0942 119.618 37.4038 118.766 37.4038C117.914 37.4038 117.224 38.0942 117.224 38.9458C117.224 39.7974 117.914 40.4878 118.766 40.4878Z" fill="white"/>
<path d="M101.801 91.8569C100.41 91.8569 99.0751 91.3044 98.0908 90.3209C97.1065 89.3374 96.553 88.0033 96.552 86.6119V73.4309C96.552 68.5438 94.6106 63.8568 91.1548 60.4011C87.6991 56.9453 83.0121 55.0039 78.125 55.0039C75.7048 55.0034 73.3082 55.4796 71.072 56.4054C68.8359 57.3312 66.8041 58.6885 65.0925 60.3996C63.381 62.1108 62.0233 64.1423 61.097 66.3783C60.1707 68.6142 59.694 71.0107 59.694 73.4309V86.6119C59.694 88.004 59.141 89.3391 58.1566 90.3235C57.1722 91.3079 55.8371 91.8609 54.445 91.8609C53.4998 91.8609 52.5932 92.2364 51.9249 92.9048C51.2565 93.5732 50.881 94.4797 50.881 95.4249V96.1489C50.881 97.0941 51.2565 98.0007 51.9249 98.669C52.5932 99.3374 53.4998 99.7129 54.445 99.7129H101.797C102.742 99.7129 103.649 99.3374 104.317 98.669C104.985 98.0007 105.361 97.0941 105.361 96.1489V95.4249C105.362 94.9569 105.27 94.4933 105.091 94.0607C104.913 93.6281 104.651 93.2349 104.32 92.9036C103.989 92.5723 103.597 92.3093 103.165 92.1297C102.732 91.9501 102.269 91.8574 101.801 91.8569Z" fill="#82B1CF"/>
<path d="M100.519 89.885C99.4755 89.8837 98.4752 89.4686 97.7373 88.7308C96.9994 87.9929 96.5843 86.9925 96.583 85.949V71.725C96.5771 67.0119 95.0339 62.4293 92.1874 58.6728C89.341 54.9162 85.3468 52.1908 80.811 50.91C81.7986 49.7857 82.4411 48.4005 82.6616 46.9203C82.882 45.4401 82.6711 43.9278 82.054 42.5644C81.437 41.2011 80.4399 40.0445 79.1823 39.2333C77.9248 38.4222 76.46 37.9907 74.9635 37.9907C73.467 37.9907 72.0022 38.4222 70.7447 39.2333C69.4871 40.0445 68.4901 41.2011 67.873 42.5644C67.2559 43.9278 67.045 45.4401 67.2654 46.9203C67.4859 48.4005 68.1284 49.7857 69.116 50.91C64.5804 52.191 60.5864 54.9165 57.7402 58.673C54.894 62.4296 53.3508 67.012 53.345 71.725V85.948C53.3437 86.9915 52.9286 87.9919 52.1907 88.7298C51.4529 89.4676 50.4525 89.8827 49.409 89.884C47.9306 89.8856 46.5133 90.4736 45.4679 91.519C44.4226 92.5643 43.8346 93.9817 43.833 95.46V96.242C43.8346 97.7204 44.4226 99.1378 45.4679 100.183C46.5133 101.228 47.9306 101.816 49.409 101.818H66.316V103.618C66.316 105.912 67.2273 108.112 68.8495 109.735C70.4717 111.357 72.6719 112.268 74.966 112.268C77.2601 112.268 79.4603 111.357 81.0825 109.735C82.7047 108.112 83.616 105.912 83.616 103.618V101.818H100.519C101.997 101.816 103.415 101.228 104.46 100.183C105.505 99.1378 106.093 97.7204 106.095 96.242V95.46C106.093 93.9819 105.505 92.5648 104.46 91.5196C103.414 90.4745 101.997 89.8866 100.519 89.885ZM70.64 45.783C70.6398 44.9279 70.8932 44.0919 71.3681 43.3807C71.843 42.6695 72.5182 42.1152 73.3081 41.7877C74.0981 41.4602 74.9674 41.3743 75.8062 41.5409C76.645 41.7074 77.4156 42.119 78.0205 42.7235C78.6254 43.3279 79.0375 44.0982 79.2046 44.9369C79.3718 45.7756 79.2865 46.645 78.9595 47.4352C78.6326 48.2254 78.0787 48.9009 77.3679 49.3763C76.657 49.8517 75.8212 50.1057 74.966 50.106C73.8194 50.1053 72.72 49.6496 71.909 48.8392C71.098 48.0287 70.6416 46.9296 70.64 45.783ZM80.152 103.614C80.152 104.99 79.6054 106.31 78.6323 107.283C77.6593 108.256 76.3396 108.803 74.9635 108.803C73.5874 108.803 72.2677 108.256 71.2947 107.283C70.3216 106.31 69.775 104.99 69.775 103.614V101.814H80.152V103.614ZM102.635 96.243C102.634 96.8043 102.411 97.3425 102.014 97.7394C101.617 98.1363 101.079 98.3595 100.518 98.36H49.409C48.8477 98.3595 48.3095 98.1363 47.9126 97.7394C47.5157 97.3425 47.2925 96.8043 47.292 96.243V95.46C47.2925 94.8987 47.5157 94.3606 47.9126 93.9637C48.3095 93.5668 48.8477 93.3436 49.409 93.343C51.3716 93.343 53.2538 92.5634 54.6416 91.1756C56.0294 89.7879 56.809 87.9056 56.809 85.943V71.725C56.7912 69.329 57.2478 66.9531 58.1524 64.7342C59.0571 62.5154 60.3919 60.4976 62.0799 58.797C63.7679 57.0964 65.7758 55.7466 67.9879 54.8256C70.1999 53.9045 72.5724 53.4303 74.9685 53.4303C77.3647 53.4303 79.7371 53.9045 81.9492 54.8256C84.1612 55.7466 86.1691 57.0964 87.8571 58.797C89.5452 60.4976 90.88 62.5154 91.7846 64.7342C92.6892 66.9531 93.1458 69.329 93.128 71.725V85.948C93.1285 86.2876 93.1522 86.6267 93.199 86.963H84.148C83.6893 86.963 83.2494 87.1453 82.9251 87.4696C82.6007 87.7939 82.4185 88.2339 82.4185 88.6925C82.4185 89.1512 82.6007 89.5911 82.9251 89.9155C83.2494 90.2398 83.6893 90.422 84.148 90.422H94.636C95.3249 91.3297 96.2144 92.0656 97.235 92.5724C98.2556 93.0791 99.3796 93.3429 100.519 93.343C101.08 93.3436 101.618 93.5668 102.015 93.9637C102.412 94.3606 102.635 94.8987 102.636 95.46V96.242L102.635 96.243Z" fill="#535C7D"/>
<path d="M76.4521 86.9629H76.2791C75.8204 86.9629 75.3805 87.1451 75.0561 87.4695C74.7318 87.7938 74.5496 88.2337 74.5496 88.6924C74.5496 89.1511 74.7318 89.591 75.0561 89.9153C75.3805 90.2397 75.8204 90.4219 76.2791 90.4219H76.4521C76.9107 90.4219 77.3507 90.2397 77.675 89.9153C77.9993 89.591 78.1816 89.1511 78.1816 88.6924C78.1816 88.2337 77.9993 87.7938 77.675 87.4695C77.3507 87.1451 76.9107 86.9629 76.4521 86.9629Z" fill="#535C7D"/>
<path d="M111.917 67.5888C110.993 59.4864 107.442 51.9093 101.807 46.0148C101.65 45.8507 101.462 45.7191 101.254 45.6275C101.046 45.536 100.822 45.4863 100.595 45.4814C100.368 45.4764 100.142 45.5162 99.9299 45.5986C99.7182 45.6809 99.5247 45.8042 99.3605 45.9613C99.1964 46.1184 99.0648 46.3064 98.9733 46.5143C98.8817 46.7223 98.832 46.9463 98.8271 47.1735C98.8221 47.4007 98.8619 47.6266 98.9443 47.8384C99.0266 48.0502 99.1499 48.2437 99.307 48.4078C104.418 53.7529 107.639 60.6241 108.477 67.9718C108.498 68.201 108.564 68.4238 108.672 68.6271C108.78 68.8304 108.927 69.0101 109.106 69.1557C109.284 69.3013 109.49 69.4098 109.71 69.475C109.931 69.5401 110.163 69.5605 110.391 69.535C110.62 69.5096 110.842 69.4387 111.043 69.3266C111.244 69.2144 111.42 69.0633 111.562 68.8821C111.704 68.7008 111.808 68.4931 111.869 68.271C111.93 68.0489 111.945 67.817 111.915 67.5888H111.917Z" fill="#535C7D"/>
<path d="M101.603 68.7379C101.628 68.9637 101.698 69.1823 101.807 69.3812C101.917 69.5801 102.065 69.7555 102.242 69.8974C102.419 70.0392 102.623 70.1447 102.841 70.2079C103.059 70.271 103.288 70.2906 103.514 70.2654C103.739 70.2403 103.958 70.1709 104.157 70.0613C104.356 69.9517 104.531 69.8039 104.673 69.6265C104.815 69.4491 104.92 69.2455 104.983 69.0274C105.047 68.8092 105.066 68.5807 105.041 68.3549C104.288 61.7619 101.398 55.5966 96.8111 50.8009C96.6539 50.6368 96.466 50.5052 96.258 50.4137C96.05 50.3221 95.826 50.2725 95.5989 50.2675C95.3717 50.2625 95.1458 50.3024 94.934 50.3847C94.7222 50.4671 94.5287 50.5903 94.3645 50.7474C94.2004 50.9046 94.0688 51.0925 93.9773 51.3005C93.8857 51.5085 93.8361 51.7324 93.8311 51.9596C93.8261 52.1868 93.866 52.4127 93.9483 52.6245C94.0307 52.8363 94.1539 53.0298 94.3111 53.1939C98.3738 57.4401 100.935 62.8994 101.603 68.7379Z" fill="#535C7D"/>
<path d="M50.566 45.9639C50.2347 45.6469 49.791 45.4744 49.3326 45.4843C48.8741 45.4942 48.4383 45.6858 48.121 46.0169C42.4857 51.911 38.9346 59.4878 38.01 67.5899C37.9592 68.0458 38.0916 68.5032 38.3781 68.8615C38.6646 69.2198 39.0816 69.4496 39.5375 69.5004C39.9934 69.5512 40.4508 69.4188 40.8091 69.1323C41.1674 68.8458 41.3972 68.4288 41.448 67.9729C42.2865 60.6252 45.5072 53.754 50.618 48.4089C50.7752 48.2449 50.8985 48.0516 50.981 47.84C51.0634 47.6284 51.1033 47.4026 51.0985 47.1756C51.0937 46.9486 51.0442 46.7247 50.9528 46.5168C50.8614 46.3089 50.73 46.121 50.566 45.9639Z" fill="#535C7D"/>
<path d="M46.4141 70.2659C46.6396 70.2909 46.8679 70.2713 47.0859 70.208C47.3038 70.1447 47.5071 70.0391 47.6843 69.8972C47.8614 69.7553 48.0088 69.5799 48.118 69.3809C48.2273 69.182 48.2963 68.9635 48.3211 68.7379C48.9889 62.8995 51.5496 57.4402 55.6121 53.1939C55.9294 52.8624 56.102 52.4184 56.092 51.9596C56.082 51.5008 55.8901 51.0648 55.5586 50.7474C55.227 50.4301 54.783 50.2575 54.3242 50.2675C53.8654 50.2775 53.4294 50.4694 53.1121 50.8009C48.5255 55.5966 45.6349 61.7619 44.8821 68.3549C44.8569 68.581 44.8766 68.8099 44.94 69.0284C45.0035 69.2469 45.1094 69.4507 45.2517 69.6282C45.394 69.8057 45.5699 69.9534 45.7693 70.0629C45.9688 70.1723 46.1879 70.2413 46.4141 70.2659Z" fill="#535C7D"/>
</svg>
