<svg width="150" height="150" viewBox="0 0 150 150" fill="none" xmlns="http://www.w3.org/2000/svg">
<path d="M75 150C116.421 150 150 116.421 150 75C150 33.5786 116.421 0 75 0C33.5786 0 0 33.5786 0 75C0 116.421 33.5786 150 75 150Z" fill="#82B1CF" fill-opacity="0.5"/>
<path d="M122.815 56.6839C125.051 56.6839 126.864 54.8711 126.864 52.6349C126.864 50.3987 125.051 48.5859 122.815 48.5859C120.579 48.5859 118.766 50.3987 118.766 52.6349C118.766 54.8711 120.579 56.6839 122.815 56.6839Z" fill="white"/>
<path d="M132.455 47.0428C135.543 47.0428 138.046 44.5397 138.046 41.4518C138.046 38.364 135.543 35.8608 132.455 35.8608C129.367 35.8608 126.864 38.364 126.864 41.4518C126.864 44.5397 129.367 47.0428 132.455 47.0428Z" fill="white"/>
<path d="M118.765 40.4878C119.617 40.4878 120.307 39.7974 120.307 38.9458C120.307 38.0942 119.617 37.4038 118.765 37.4038C117.913 37.4038 117.223 38.0942 117.223 38.9458C117.223 39.7974 117.913 40.4878 118.765 40.4878Z" fill="white"/>
<path d="M36.1194 90.1137L111.153 90.5739C112.628 86.4179 113.434 81.9447 113.434 77.2826C113.434 55.3474 95.6521 37.5654 73.717 37.5654C51.7818 37.5654 34 55.3472 34 77.2824C34 81.7727 34.7462 86.0883 36.1194 90.1137Z" fill="#82B1CF"/>
<path d="M36.1195 46.8472V90.1142C37.4546 94.0273 39.3836 97.6655 41.7987 100.921C41.8008 100.924 51.1817 112.244 74.4736 112.244L102.207 104.951C106.143 100.898 109.223 96.0088 111.153 90.5744V46.8472H36.1195Z" fill="#EDD491"/>
<path d="M36.1195 90.1142C37.4546 94.0273 39.3836 97.6655 41.7987 100.922C41.8006 100.924 50.1532 110.998 70.6576 112.137C70.5287 96.731 69.2504 67.8398 61.4643 68.2563C50.8549 68.8237 50.1541 60.7993 50.1541 60.7993V47.1714L49.8972 46.8472H36.1195V90.1142Z" fill="#EDD491"/>
<path d="M54.6573 42.3442C54.6573 45.0105 52.4959 47.1719 49.8297 47.1719H111.152V42.3442H54.6573Z" fill="#D3DCFB"/>
<path d="M36.1196 42.3442V47.1719H50.1543C52.8205 47.1719 54.9819 45.0105 54.9819 42.3442H36.1196Z" fill="#4FABF7"/>
<path d="M36.1196 47.1719H50.1543C47.2825 45.7294 48.8994 42.6328 48.8994 42.6328C48.7621 42.5384 48.6447 42.442 48.5422 42.3442H36.1198V47.1719H36.1196Z" fill="#1886EA"/>
<path d="M108.39 34H38.8823C37.3566 34 36.1195 35.2369 36.1195 36.7628V42.6323H111.153V36.7628C111.153 35.2369 109.916 34 108.39 34Z" fill="#3C58A0"/>
<path d="M48.2787 34H38.8823C37.3566 34 36.1195 35.2369 36.1195 36.7628V42.6323H48.8992C47.2313 41.4872 48.2787 40.0186 48.2787 40.0186C48.2787 40.0186 49.6749 38.0098 48.2787 36.6137C46.8826 35.2174 48.2787 34 48.2787 34V34Z" fill="#2A428C"/>
<path d="M43.2783 40.0187C44.2185 40.0187 44.9808 39.2565 44.9808 38.3162C44.9808 37.376 44.2185 36.6138 43.2783 36.6138C42.338 36.6138 41.5758 37.376 41.5758 38.3162C41.5758 39.2565 42.338 40.0187 43.2783 40.0187Z" fill="#FF4155"/>
<path d="M48.2785 40.0187C49.2188 40.0187 49.981 39.2565 49.981 38.3162C49.981 37.376 49.2188 36.6138 48.2785 36.6138C47.3383 36.6138 46.576 37.376 46.576 38.3162C46.576 39.2565 47.3383 40.0187 48.2785 40.0187Z" fill="#FFDD40"/>
<path d="M53.2791 40.0187C54.2194 40.0187 54.9816 39.2565 54.9816 38.3162C54.9816 37.376 54.2194 36.6138 53.2791 36.6138C52.3389 36.6138 51.5767 37.376 51.5767 38.3162C51.5767 39.2565 52.3389 40.0187 53.2791 40.0187Z" fill="#4CE088"/>
<path d="M95.8453 39.5322H59.9297C59.2582 39.5322 58.7139 38.988 58.7139 38.3164C58.7139 37.6448 59.2582 37.1006 59.9297 37.1006H95.8453C96.5168 37.1006 97.0612 37.6448 97.0612 38.3164C97.0612 38.988 96.5168 39.5322 95.8453 39.5322Z" fill="#1C2E7A"/>
<path d="M104.607 39.5322H101.508C100.836 39.5322 100.292 38.988 100.292 38.3164C100.292 37.6448 100.836 37.1006 101.508 37.1006H104.607C105.279 37.1006 105.823 37.6448 105.823 38.3164C105.823 38.988 105.279 39.5322 104.607 39.5322Z" fill="#1C2E7A"/>
<path d="M66.8027 101.934C68.7523 103.448 71.1582 104.271 73.6362 104.271C76.1141 104.271 78.5201 103.448 80.4696 101.934C81.9146 100.812 83.4565 99.2849 84.8055 97.3605C84.4442 97.2563 84.079 97.1576 83.7092 97.0648C83.2911 96.9601 82.9236 96.7085 82.6865 96.3739C81.5929 94.8311 81.2899 92.446 81.2304 90.7163C80.4633 91.6099 79.6581 92.3572 78.8889 92.9546C75.8038 95.3505 71.4641 95.3473 68.3829 92.9546C67.6135 92.3572 66.8085 91.6099 66.0414 90.7163C65.9804 92.4844 65.6656 94.9376 64.5116 96.4757C64.3146 96.7382 64.0113 96.9527 63.6475 97.0428C63.2494 97.1414 62.8558 97.2474 62.4661 97.36C63.8155 99.2848 65.3574 100.812 66.8027 101.934Z" fill="#FCAD6D"/>
<path d="M68.3831 92.9546C67.6138 92.3572 66.8087 91.6099 66.0416 90.7163C65.9807 92.4844 65.6659 94.9376 64.5118 96.4757C64.3148 96.7382 64.0115 96.9527 63.6478 97.0428C63.2496 97.1414 62.856 97.2474 62.4663 97.36C63.8155 99.2846 65.3575 100.812 66.8026 101.934C67.3035 102.323 67.835 102.666 68.3896 102.961C72.7119 100.678 73.8144 97.2104 73.9894 94.7428C72.0168 94.8237 70.0219 94.2271 68.3831 92.9546Z" fill="#FD995B"/>
<path d="M71.0961 54.7838C63.4687 55.8231 62.7439 60.1475 62.7405 61.7341C62.7397 62.0669 62.5554 62.3752 62.2563 62.5208C58.2888 64.4509 60.4279 73.7529 60.4279 73.7529C60.8263 73.7795 61.4239 74.1214 61.7349 74.272C61.8111 73.7979 61.9355 73.3312 62.111 72.8802C62.2448 72.5366 62.4121 72.1893 62.6212 71.8612C62.984 71.2921 63.1493 70.6204 63.0999 69.9491C62.9572 68.0085 62.8454 64.3653 65.407 63.2127C67.577 62.2363 70.239 62.8016 71.9366 63.3662C73.0392 63.7327 74.2333 63.7327 75.3358 63.3662C77.0334 62.8017 79.6952 62.2363 81.8654 63.2127C84.4196 64.3619 84.3147 67.9868 84.1736 69.9324C84.1245 70.6089 84.2855 71.2874 84.6511 71.8609C84.867 72.1995 85.0382 72.5586 85.1742 72.9132C85.3431 73.3539 85.4632 73.8093 85.5376 74.2718C85.9296 74.0818 86.6706 73.6944 87.15 73.7621C87.2087 71.7281 87.3964 69.5354 87.3964 69.5354C89.6565 58.4653 79.3086 53.6649 71.0961 54.7838Z" fill="#2A428C"/>
<path d="M71.0961 54.7836C63.4687 55.8229 62.7439 60.1473 62.7405 61.7339C62.7397 62.0667 62.5554 62.375 62.2563 62.5206C58.2888 64.4507 60.4279 73.7527 60.4279 73.7527C60.8263 73.7793 61.4239 74.1212 61.7349 74.2718C61.8111 73.7978 61.9355 73.331 62.111 72.8801C62.2448 72.5364 62.4121 72.1891 62.6212 71.861C62.984 71.2919 63.1493 70.6203 63.0999 69.949C62.9572 68.0083 62.8454 64.3651 65.407 63.2125C67.577 62.2361 70.239 62.8014 71.9366 63.366C72.4011 63.5205 72.8817 63.6058 73.365 63.6301C73.2909 63.5032 73.212 63.377 73.1235 63.2527C69.8513 58.6537 74.3997 55.3024 75.2776 54.7167C73.8696 54.5766 72.4538 54.5987 71.0961 54.7836Z" fill="#1C2E7A"/>
<path d="M87.8264 74.0263C87.2323 73.4819 86.0491 73.7578 85.5374 74.0911C85.6496 74.7891 85.656 75.5032 85.5592 76.2084L84.9553 80.6058C84.9553 80.9603 84.9441 81.308 84.9237 81.6498C86.396 82.0938 87.1273 80.7721 87.2505 79.8651C87.3035 79.4746 87.3902 79.0897 87.5105 78.7143C87.902 77.4912 89.3148 75.3902 87.8264 74.0263Z" fill="#FCAD6D"/>
<path d="M59.4457 74.0263C60.0398 73.4819 61.223 73.7578 61.7346 74.0911C61.6226 74.7891 61.6161 75.5032 61.7131 76.2084L62.3169 80.6058C62.3169 80.9603 62.3281 81.308 62.3487 81.6498C60.8764 82.0938 60.1452 80.7721 60.022 79.8651C59.9689 79.4746 59.8822 79.0897 59.7619 78.7143C59.3701 77.4912 57.9573 75.3902 59.4457 74.0263Z" fill="#FD995B"/>
<path d="M85.3544 72.7323C85.2186 72.3778 85.0472 72.0187 84.8313 71.6801C84.4657 71.1065 84.3047 70.4279 84.3539 69.7516C84.4947 67.806 84.4192 64.0005 81.865 62.8513C79.695 61.8749 77.0332 62.4402 75.3357 63.0046C74.2334 63.3713 73.0385 63.3713 71.9361 63.0046C70.2385 62.4402 67.5768 61.8749 65.4068 62.8513C62.8454 64.0039 62.7766 67.8277 62.9191 69.7683C62.9684 70.4396 62.8032 71.1111 62.4404 71.6804C62.2313 72.0085 62.064 72.3557 61.9303 72.6994C61.4963 73.8144 61.3697 75.0236 61.5323 76.2075L62.1361 80.6058C62.1361 86.9292 65.5116 91.2272 68.3829 93.4569C69.8816 94.6207 71.7311 95.2529 73.6358 95.2529C75.5406 95.2529 77.3901 94.6207 78.8888 93.4569C81.7601 91.2272 85.1356 86.9292 85.1356 80.6058L85.7394 76.2084C85.9006 75.0359 85.7785 73.8386 85.3544 72.7323Z" fill="#F9BA8F"/>
<path d="M76.7686 93.4569C73.8973 91.2272 70.5219 86.9292 70.5219 80.6058L69.918 76.2075C69.7554 75.0236 69.882 73.8144 70.316 72.6994C70.4497 72.3557 70.617 72.0085 70.8262 71.6804C71.189 71.1111 71.3542 70.4396 71.3049 69.7683C71.176 68.0136 71.2203 64.7197 73.1233 63.2525C72.7215 63.2141 72.3231 63.1333 71.9361 63.0046C70.2385 62.4402 67.5768 61.8749 65.4069 62.8513C62.8454 64.0039 62.7766 67.8277 62.9191 69.7683C62.9684 70.4396 62.8032 71.1111 62.4404 71.6804C62.2313 72.0085 62.064 72.3557 61.9303 72.6994C61.4963 73.8144 61.3697 75.0236 61.5323 76.2075L62.1361 80.6058C62.1361 86.9292 65.5116 91.2272 68.3829 93.4569C69.8816 94.6206 71.7311 95.2529 73.6358 95.2529C75.1128 95.2529 76.5559 94.8713 77.8286 94.1578C77.4602 93.9511 77.1051 93.7182 76.7686 93.4569Z" fill="#FCAD6D"/>
<path d="M94.84 101.608C93.86 101.528 93.3387 101.148 92.1835 100.497C89.7776 99.1401 87.2862 98.058 84.5717 97.297C83.2458 99.2028 81.7244 100.712 80.2997 101.819C78.3985 103.295 76.0523 104.097 73.6361 104.097C71.2197 104.097 68.8735 103.295 66.9722 101.819C65.5473 100.712 64.0254 99.2021 62.6995 97.2959C59.9962 98.0551 57.4879 99.1439 55.0885 100.497C53.9335 101.148 53.412 101.528 52.432 101.608C50.4564 101.77 48.8178 102.297 47.4561 103.074V107.074C54.4566 113.25 63.6479 117 73.7171 117C84.8944 117 94.9914 112.381 102.209 104.95C100.515 103.167 98.1464 101.879 94.84 101.608Z" fill="#FF4155"/>
<path d="M66.8845 103.653C67.5033 103.407 68.0681 103.139 68.5866 102.854C68.0217 102.558 67.4807 102.213 66.9724 101.819C65.5474 100.712 64.0255 99.2021 62.6996 97.2959C59.9963 98.0551 57.488 99.1439 55.0886 100.497C53.9336 101.148 53.4121 101.528 52.4321 101.608C50.4565 101.77 48.8179 102.297 47.4562 103.074V107.074C50.1728 109.47 53.2206 111.5 56.5204 113.088C56.9337 108.087 59.0026 106.785 66.8845 103.653Z" fill="#E80054"/>
<path d="M91.7592 53.436V62.7159C91.7592 63.6406 92.5088 64.3902 93.4336 64.3902H113.543C114.467 64.3902 115.217 63.6406 115.217 62.7159V53.436C115.217 52.5113 114.468 51.7617 113.543 51.7617H93.4336C92.5089 51.7617 91.7592 52.5113 91.7592 53.436Z" fill="#FF4155"/>
<path d="M115.217 61.8226V53.436C115.217 52.5113 114.468 51.7617 113.543 51.7617H109.791C109.791 51.7617 108.43 52.9041 109.791 54.2655V60.394L112.739 60.9399C112.739 60.9399 113.36 62.6076 115.217 61.8226Z" fill="#FF7186"/>
<path d="M93.4336 51.7617C92.5089 51.7617 91.7592 52.5113 91.7592 53.436V62.7159C91.7592 63.6406 92.5088 64.3902 93.4336 64.3902H104.221C103.316 62.9651 104.662 61.9388 104.662 61.9388L102.253 54.2931C100.908 53.4979 101.163 52.3437 101.41 51.7617H93.4336Z" fill="#E80054"/>
<path d="M72.084 86.2305H58.5813C57.267 86.2305 56.1918 87.3057 56.1918 88.62C56.1918 89.9342 57.267 91.0095 58.5813 91.0095H72.084C73.3982 91.0095 74.4735 89.9342 74.4735 88.62C74.4735 87.3057 73.3982 86.2305 72.084 86.2305Z" fill="#E9EFFF"/>
<path d="M72.084 98.8735H58.5813C57.267 98.8735 56.1918 99.9488 56.1918 101.263C56.1918 102.577 57.267 103.653 58.5813 103.653H72.084C73.3982 103.653 74.4735 102.577 74.4735 101.263C74.4735 99.9488 73.3982 98.8735 72.084 98.8735Z" fill="#E9EFFF"/>
<path d="M72.084 73.5869H58.5813C57.267 73.5869 56.1918 74.6622 56.1918 75.9764C56.1918 77.2906 57.267 78.3659 58.5813 78.3659H72.084C73.3982 78.3659 74.4735 77.2906 74.4735 75.9764C74.4735 74.6622 73.3982 73.5869 72.084 73.5869Z" fill="#E9EFFF"/>
<path d="M64.495 88.62C64.495 87.3057 65.5703 86.2305 66.8845 86.2305H58.5813C57.267 86.2305 56.1918 87.3057 56.1918 88.62C56.1918 89.9342 57.267 91.0095 58.5813 91.0095H66.8845C65.5703 91.0093 64.495 89.934 64.495 88.62Z" fill="#D3DCFB"/>
<path d="M64.495 101.263C64.495 99.9488 65.5703 98.8735 66.8845 98.8735H58.5813C57.267 98.8735 56.1918 99.9488 56.1918 101.263C56.1918 102.577 57.267 103.653 58.5813 103.653H66.8845C65.5703 103.653 64.495 102.577 64.495 101.263Z" fill="#D3DCFB"/>
<path d="M64.495 75.9764C64.495 74.6622 65.5703 73.5869 66.8845 73.5869H58.5813C57.267 73.5869 56.1918 74.6622 56.1918 75.9764C56.1918 77.2906 57.267 78.3659 58.5813 78.3659H66.8845C65.5703 78.3659 64.495 77.2906 64.495 75.9764Z" fill="#D3DCFB"/>
<path d="M95.8022 61.9395C95.1583 61.9395 95.1157 61.9322 95.0452 61.92C94.5783 61.8399 94.2371 61.4351 94.2371 60.9614V55.2119C94.2371 54.6747 94.6725 54.2393 95.2097 54.2393C95.7469 54.2393 96.1824 54.6748 96.1824 55.2119V59.993C96.5032 59.9922 96.8699 59.9906 97.2192 59.9888H97.2247C97.7594 59.9888 98.1943 60.4207 98.1972 60.9561C98.2003 61.4933 97.7672 61.9312 97.2301 61.9341C96.5658 61.9378 96.1136 61.9395 95.8022 61.9395Z" fill="#E9EFFF"/>
<path d="M99.963 61.9388C99.4259 61.9388 98.9904 61.5034 98.9904 60.9661V55.2119C98.9904 54.6747 99.4259 54.2393 99.963 54.2393C100.5 54.2393 100.936 54.6748 100.936 55.2119V60.9661C100.936 61.5034 100.5 61.9388 99.963 61.9388Z" fill="#E9EFFF"/>
<path d="M111.767 61.9122H109.364C108.827 61.9122 108.392 61.4766 108.392 60.9395V55.2378C108.392 54.7007 108.827 54.2651 109.364 54.2651H111.767C112.304 54.2651 112.739 54.7007 112.739 55.2378C112.739 55.775 112.304 56.2104 111.767 56.2104H110.337V59.9668H111.767C112.304 59.9668 112.739 60.4023 112.739 60.9395C112.739 61.4767 112.304 61.9122 111.767 61.9122Z" fill="#E9EFFF"/>
<path d="M111.59 59.061H109.364C108.827 59.061 108.392 58.6254 108.392 58.0884C108.392 57.5513 108.827 57.1157 109.364 57.1157H111.59C112.127 57.1157 112.562 57.5513 112.562 58.0884C112.562 58.6256 112.127 59.061 111.59 59.061Z" fill="#E9EFFF"/>
<path d="M104.662 61.9381C104.196 61.9381 103.779 61.6445 103.623 61.2054L101.653 55.5303C101.477 55.0227 101.745 54.4684 102.253 54.2924C102.76 54.116 103.315 54.3851 103.491 54.8922L104.644 58.2151L105.74 54.9152C105.91 54.4052 106.461 54.1301 106.97 54.2987C107.48 54.4681 107.756 55.0186 107.586 55.5285L105.708 61.1841C105.554 61.6345 105.138 61.9349 104.669 61.9381C104.667 61.9381 104.664 61.9381 104.662 61.9381Z" fill="#E9EFFF"/>
<path d="M47.6069 95.4438C44.508 95.4438 41.9759 97.8664 41.7987 100.921C42.7423 102.193 43.7614 103.405 44.8473 104.554L48.5938 106.628C50.4662 106.292 51.9437 105.142 51.9437 105.142C52.8654 104.113 53.426 102.753 53.426 101.263C53.426 98.0491 50.8207 95.4438 47.6069 95.4438Z" fill="#FFDD40"/>
<path d="M53.0321 103.371C50.1409 103.759 50.0639 101.122 50.0639 101.122C50.0639 101.122 48.6211 97.3013 47.9031 96.5835C47.4742 96.1544 47.6071 95.7248 47.7836 95.4484C47.7248 95.4466 47.6661 95.4438 47.6069 95.4438C44.508 95.4438 41.9759 97.8664 41.7987 100.921C42.7423 102.193 43.7614 103.405 44.8473 104.554L48.5938 106.628C50.4662 106.292 51.9437 105.142 51.9437 105.142C52.4055 104.627 52.7766 104.028 53.0321 103.371Z" fill="#FFB332"/>
<path d="M46.0509 104.92C46.4948 105.265 47.0427 105.452 47.6068 105.452C48.171 105.452 48.7187 105.265 49.1628 104.92C49.3688 104.76 49.5834 104.563 49.7906 104.331C49.671 104.293 49.5494 104.257 49.4247 104.226C49.3493 104.207 49.283 104.162 49.2401 104.102C49.0426 103.823 48.988 103.393 48.9773 103.081C48.8389 103.242 48.6936 103.377 48.5547 103.485C47.9978 103.917 47.2147 103.916 46.6587 103.485C46.5199 103.377 46.3745 103.242 46.236 103.081C46.225 103.4 46.1683 103.842 45.96 104.12C45.9245 104.167 45.8697 104.206 45.804 104.222C45.6743 104.254 45.5476 104.291 45.4227 104.331C45.6302 104.563 45.8449 104.76 46.0509 104.92Z" fill="#FCAD6D"/>
<path d="M47.4636 103.801C47.1776 103.775 46.8976 103.67 46.6593 103.485C46.5206 103.377 46.3753 103.242 46.2369 103.081C46.2259 103.4 46.169 103.842 45.9608 104.12C45.9253 104.167 45.8705 104.206 45.8049 104.222C45.6753 104.254 45.5484 104.291 45.4236 104.331C45.6309 104.563 45.8456 104.76 46.0516 104.92C46.3306 105.137 46.6506 105.291 46.9899 105.376C47.3177 104.863 47.4305 104.262 47.4636 103.801Z" fill="#FD995B"/>
<path d="M50.9541 104.846C50.5555 104.621 50.1439 104.438 49.7002 104.304C49.4964 104.535 49.2841 104.73 49.0808 104.888C48.6603 105.215 48.1413 105.392 47.6069 105.392C47.0724 105.392 46.5535 105.215 46.133 104.888C45.9297 104.73 45.7175 104.535 45.5135 104.304C45.2834 104.374 45.0609 104.458 44.8444 104.553C45.6763 105.434 46.5475 106.277 47.4561 107.079C47.5064 107.08 47.5561 107.083 47.6067 107.083C49.3299 107.083 50.8781 106.333 51.9435 105.143C51.7888 105.095 51.6194 105.062 51.4333 105.047C51.2568 105.032 51.1626 104.963 50.9541 104.846Z" fill="#3C58A0"/>
<path d="M47.6068 81.4326C49.9194 81.4326 51.9435 79.8559 51.9435 79.8559C52.8653 78.8262 53.4259 77.4669 53.4259 75.9763C53.4259 72.7625 50.8206 70.1572 47.6068 70.1572C44.393 70.1572 41.7877 72.7625 41.7877 75.9763C41.7877 77.4667 42.3485 78.8262 43.27 79.8557C43.27 79.8559 45.2941 81.4326 47.6068 81.4326Z" fill="#4FABF7"/>
<path d="M49.4189 76.6653C49.4189 76.6653 48.5678 71.7817 47.903 71.2967C47.2644 70.8308 47.754 70.2104 47.7939 70.1619C47.7316 70.16 47.6695 70.1572 47.6068 70.1572C44.393 70.1572 41.7877 72.7625 41.7877 75.9763C41.7877 77.4667 42.3483 78.8262 43.2699 79.8557C43.2699 79.8557 45.294 81.4324 47.6066 81.4324C49.9193 81.4324 51.9434 79.8559 51.9434 79.8559C52.4996 79.2345 52.9232 78.4924 53.1725 77.6744C51.144 78.5688 49.4189 76.6653 49.4189 76.6653Z" fill="#1886EA"/>
<path d="M46.0509 79.6332C46.4948 79.9779 47.0427 80.1651 47.6068 80.1651C48.171 80.1651 48.7187 79.9779 49.1628 79.6332C49.3688 79.4732 49.5834 79.2761 49.7906 79.0443C49.671 79.0059 49.5494 78.9704 49.4247 78.9391C49.3493 78.9203 49.283 78.8747 49.2401 78.8144C49.0426 78.5361 48.988 78.1055 48.9773 77.7935C48.8389 77.9548 48.6936 78.0896 48.5547 78.1974C47.9978 78.6298 47.2147 78.6293 46.6587 78.1974C46.5199 78.0896 46.3745 77.9548 46.236 77.7935C46.225 78.1125 46.1683 78.5552 45.96 78.8329C45.9245 78.8802 45.8697 78.919 45.804 78.9352C45.6743 78.9673 45.5476 79.0039 45.4227 79.0443C45.6302 79.2761 45.8449 79.4732 46.0509 79.6332Z" fill="#FCAD6D"/>
<path d="M47.5991 78.5217C47.2666 78.52 46.9346 78.4122 46.6587 78.1979C46.52 78.0901 46.3747 77.9552 46.2363 77.7939C46.2253 78.113 46.1684 78.5557 45.9602 78.8334C45.9247 78.8807 45.8699 78.9195 45.8043 78.9357C45.6747 78.9678 45.5478 79.0044 45.423 79.0448C45.6303 79.2766 45.8449 79.4737 46.051 79.6337C46.301 79.8279 46.5847 79.9701 46.885 80.0589C47.3629 79.5778 47.537 78.9483 47.5991 78.5217Z" fill="#FD995B"/>
<path d="M51.4334 79.7594C51.2565 79.745 51.1625 79.6764 50.954 79.5589C50.5556 79.3342 50.1438 79.1513 49.7001 79.0166C49.4964 79.2483 49.284 79.4431 49.0807 79.601C48.6602 79.9275 48.1413 80.105 47.6068 80.105C47.0723 80.105 46.5534 79.9277 46.1329 79.601C45.9296 79.4431 45.7174 79.2483 45.5135 79.0166C45.0711 79.1513 44.6569 79.3348 44.2594 79.5589C44.0509 79.6764 43.9569 79.745 43.7801 79.7594C43.594 79.7746 43.4245 79.8077 43.2699 79.8558C44.3354 81.0462 45.8834 81.7955 47.6066 81.7955C49.3299 81.7955 50.878 81.0462 51.9436 79.8558C51.7891 79.8077 51.6195 79.7746 51.4334 79.7594Z" fill="#3C58A0"/>
<path d="M47.6068 94.1984C50.0475 94.1984 51.9601 92.4813 51.9601 92.4813C52.8718 91.454 53.4259 90.102 53.4259 88.6204C53.4259 85.4065 50.8206 82.8013 47.6068 82.8013C44.393 82.8013 41.7877 85.4065 41.7877 88.6204C41.7877 90.102 42.3418 91.454 43.2535 92.4813C43.2537 92.4813 45.1661 94.1984 47.6068 94.1984Z" fill="#4CE088"/>
<path d="M52.872 91.0974C52.0203 91.3962 51.1444 90.8756 50.5705 90.4893C49.7632 89.9458 49.1555 84.5688 48.2746 83.9967C47.6966 83.6214 47.7681 83.1138 47.8853 82.8082C47.7929 82.8039 47.7002 82.8013 47.6067 82.8013C44.3929 82.8013 41.7876 85.4065 41.7876 88.6204C41.7876 90.102 42.3417 91.454 43.2534 92.4813C43.2536 92.4815 45.166 94.1984 47.6067 94.1984C50.0474 94.1984 51.96 92.4813 51.96 92.4813C52.3265 92.0684 52.6339 91.6024 52.872 91.0974Z" fill="#30C16B"/>
<path d="M47.1484 71.3094C45.772 71.4969 45.6412 72.2773 45.6405 72.5638C45.6403 72.6237 45.6071 72.6795 45.5531 72.7058C44.8371 73.0541 45.2232 74.7328 45.2232 74.7328C45.2952 74.7376 45.403 74.7992 45.4591 74.8265C45.4729 74.7409 45.4953 74.6567 45.527 74.5754C45.5512 74.5133 45.5813 74.4507 45.6191 74.3915C45.6846 74.2888 45.7144 74.1677 45.7055 74.0464C45.6797 73.6963 45.6596 73.0387 46.1218 72.8307C46.5135 72.6545 46.9938 72.7565 47.3002 72.8585C47.4991 72.9246 47.7147 72.9246 47.9136 72.8585C48.22 72.7565 48.7003 72.6545 49.092 72.8307C49.5529 73.0381 49.534 73.6924 49.5086 74.0435C49.4997 74.1656 49.5287 74.2879 49.5948 74.3915C49.6337 74.4527 49.6647 74.5175 49.6892 74.5814C49.7197 74.661 49.7414 74.7432 49.7548 74.8265C49.8255 74.7921 49.9593 74.7222 50.0458 74.7346C50.0564 74.3675 50.0902 73.9718 50.0902 73.9718C50.4981 71.9737 48.6306 71.1074 47.1484 71.3094Z" fill="#2A428C"/>
<path d="M47.1484 71.3092C45.772 71.4968 45.6412 72.2772 45.6405 72.5636C45.6403 72.6236 45.6071 72.6794 45.5531 72.7056C44.8371 73.054 45.2232 74.7326 45.2232 74.7326C45.2952 74.7375 45.403 74.7991 45.4591 74.8263C45.4729 74.7407 45.4953 74.6566 45.527 74.5752C45.5512 74.5131 45.5813 74.4506 45.6191 74.3914C45.6846 74.2886 45.7144 74.1675 45.7055 74.0463C45.6797 73.6961 45.6596 73.0386 46.1218 72.8306C46.5135 72.6544 46.9938 72.7564 47.3002 72.8583C47.384 72.8862 47.4707 72.9016 47.5579 72.906C47.5446 72.8831 47.5304 72.8603 47.5143 72.8379C46.9238 72.0079 47.7447 71.4031 47.9031 71.2974C47.649 71.2718 47.3936 71.2758 47.1484 71.3092Z" fill="#1C2E7A"/>
<path d="M50.1679 74.7818C50.0608 74.6835 49.8471 74.7333 49.7549 74.7934C49.7751 74.9194 49.7763 75.0483 49.7588 75.1755L49.6498 75.969C49.6498 76.0331 49.6477 76.0958 49.6442 76.1574C49.9099 76.2375 50.0418 75.999 50.064 75.8353C50.0736 75.7648 50.0893 75.6954 50.1109 75.6276C50.1816 75.407 50.4366 75.0278 50.1679 74.7818Z" fill="#FCAD6D"/>
<path d="M45.0458 74.7818C45.153 74.6835 45.3667 74.7333 45.4589 74.7934C45.4386 74.9194 45.4375 75.0483 45.455 75.1755L45.5639 75.969C45.5639 76.0331 45.5659 76.0958 45.5696 76.1574C45.3039 76.2375 45.172 75.999 45.1498 75.8353C45.1402 75.7648 45.1245 75.6954 45.1029 75.6276C45.0322 75.407 44.7772 75.0278 45.0458 74.7818Z" fill="#FD995B"/>
<path d="M49.7218 74.5484C49.6973 74.4844 49.6664 74.4197 49.6275 74.3586C49.5615 74.255 49.5325 74.1326 49.5412 74.0105C49.5667 73.6594 49.553 72.9727 49.092 72.7652C48.7003 72.589 48.22 72.6909 47.9136 72.7929C47.7147 72.859 47.4991 72.859 47.3 72.7929C46.9937 72.6911 46.5133 72.589 46.1217 72.7652C45.6593 72.9732 45.647 73.6633 45.6726 74.0134C45.6815 74.1345 45.6517 74.2558 45.5862 74.3586C45.5485 74.4177 45.5183 74.4805 45.4941 74.5424C45.4158 74.7436 45.393 74.9618 45.4223 75.1754L45.5313 75.9693C45.5313 77.1105 46.1405 77.8861 46.6586 78.2886C46.9291 78.4987 47.2629 78.6126 47.6066 78.6126C47.9503 78.6126 48.2842 78.4985 48.5546 78.2886C49.0727 77.8862 49.6819 77.1105 49.6819 75.9693L49.7909 75.1757C49.8204 74.964 49.7983 74.7479 49.7218 74.5484Z" fill="#F9BA8F"/>
<path d="M48.1724 78.2887C47.6543 77.8863 47.0451 77.1106 47.0451 75.9694L46.9362 75.1755C46.9068 74.9619 46.9297 74.7437 47.008 74.5425C47.0321 74.4804 47.0623 74.4178 47.1 74.3587C47.1655 74.2559 47.1954 74.1348 47.1865 74.0135C47.1633 73.6969 47.1712 73.1025 47.5146 72.8376C47.4421 72.8306 47.3701 72.816 47.3004 72.7929C46.994 72.6911 46.5137 72.5889 46.122 72.7651C45.6597 72.9731 45.6474 73.6632 45.673 74.0134C45.6819 74.1345 45.6521 74.2557 45.5866 74.3585C45.5488 74.4177 45.5187 74.4804 45.4945 74.5423C45.4162 74.7435 45.3934 74.9617 45.4227 75.1754L45.5316 75.9692C45.5316 77.1105 46.1408 77.886 46.6589 78.2885C46.9295 78.4986 47.2633 78.6126 47.607 78.6126C47.8735 78.6126 48.134 78.5437 48.3637 78.415C48.2971 78.3778 48.233 78.3359 48.1724 78.2887Z" fill="#FCAD6D"/>
<path d="M47.1484 96.596C45.772 96.7835 45.6412 97.5639 45.6405 97.8502C45.6403 97.9102 45.6071 97.966 45.5531 97.9922C44.8371 98.3406 45.2232 100.019 45.2232 100.019C45.2952 100.024 45.403 100.086 45.4591 100.113C45.4729 100.027 45.4953 99.9432 45.527 99.8618C45.5512 99.7997 45.5813 99.7372 45.6191 99.678C45.6846 99.5752 45.7144 99.4541 45.7055 99.3329C45.6797 98.9827 45.6596 98.3252 46.1218 98.1172C46.5135 97.941 46.9938 98.043 47.3002 98.1449C47.4991 98.2111 47.7147 98.2111 47.9136 98.1449C48.22 98.043 48.7003 97.941 49.092 98.1172C49.5529 98.3247 49.534 98.9788 49.5086 99.3299C49.4997 99.452 49.5287 99.5744 49.5947 99.678C49.6336 99.7391 49.6645 99.804 49.689 99.8678C49.7195 99.9474 49.7412 100.03 49.7547 100.113C49.8254 100.079 49.9591 100.009 50.0457 100.021C50.0562 99.6542 50.0901 99.2585 50.0901 99.2585C50.4981 97.2603 48.6306 96.394 47.1484 96.596Z" fill="#2A428C"/>
<path d="M47.1484 96.5959C45.772 96.7834 45.6412 97.5638 45.6405 97.8501C45.6403 97.9101 45.6071 97.9658 45.5531 97.9921C44.8371 98.3405 45.2232 100.019 45.2232 100.019C45.2952 100.024 45.403 100.086 45.4591 100.113C45.4729 100.027 45.4953 99.9431 45.527 99.8617C45.5512 99.7996 45.5813 99.7371 45.6191 99.6779C45.6846 99.5751 45.7144 99.454 45.7055 99.3328C45.6797 98.9826 45.6596 98.3251 46.1218 98.1171C46.5135 97.9409 46.9938 98.0428 47.3002 98.1448C47.384 98.1727 47.4707 98.1881 47.5579 98.1925C47.5446 98.1696 47.5304 98.1468 47.5143 98.1244C46.9238 97.2944 47.7447 96.6896 47.9031 96.5839C47.649 96.5584 47.3934 96.5625 47.1484 96.5959Z" fill="#1C2E7A"/>
<path d="M50.1677 100.068C50.0605 99.9701 49.8469 100.02 49.7546 100.08C49.7749 100.206 49.776 100.335 49.7585 100.462L49.6496 101.256C49.6496 101.32 49.6476 101.383 49.6439 101.444C49.9096 101.524 50.0416 101.286 50.0638 101.122C50.0733 101.052 50.0891 100.982 50.1108 100.914C50.1813 100.694 50.4363 100.314 50.1677 100.068Z" fill="#FCAD6D"/>
<path d="M45.0458 100.068C45.153 99.9701 45.3667 100.02 45.4589 100.08C45.4386 100.206 45.4375 100.335 45.455 100.462L45.564 101.256C45.564 101.32 45.5659 101.383 45.5696 101.444C45.3039 101.524 45.172 101.286 45.1498 101.122C45.1402 101.052 45.1245 100.982 45.1027 100.914C45.0322 100.694 44.7772 100.314 45.0458 100.068Z" fill="#FD995B"/>
<path d="M49.7216 99.835C49.6972 99.771 49.6662 99.7063 49.6273 99.6452C49.5613 99.5416 49.5323 99.4192 49.541 99.2971C49.5665 98.946 49.5529 98.2593 49.0918 98.0518C48.7002 97.8756 48.2199 97.9776 47.9135 98.0795C47.7146 98.1457 47.499 98.1457 47.2999 98.0795C46.9935 97.9777 46.5132 97.8756 46.1215 98.0518C45.6592 98.2598 45.6469 98.9499 45.6726 99.3C45.6815 99.4211 45.6517 99.5424 45.5862 99.6452C45.5485 99.7043 45.5183 99.7671 45.4941 99.829C45.4158 100.03 45.393 100.248 45.4223 100.462L45.5313 101.256C45.5313 102.397 46.1405 103.173 46.6586 103.575C46.9291 103.785 47.2629 103.899 47.6066 103.899C47.9503 103.899 48.284 103.785 48.5546 103.575C49.0729 103.173 49.6819 102.397 49.6819 101.256L49.7909 100.462C49.8202 100.251 49.7982 100.035 49.7216 99.835Z" fill="#F9BA8F"/>
<path d="M48.1722 103.575C47.6539 103.173 47.0448 102.397 47.0448 101.256L46.9359 100.462C46.9066 100.249 46.9294 100.03 47.0077 99.8292C47.0319 99.7671 47.062 99.7045 47.0998 99.6453C47.1653 99.5426 47.1951 99.4215 47.1862 99.3002C47.1629 98.9836 47.171 98.3892 47.5143 98.1243C47.4419 98.1173 47.3699 98.1027 47.3 98.0795C46.9936 97.9776 46.5133 97.8756 46.1216 98.0518C45.6593 98.2598 45.647 98.9499 45.6728 99.3C45.6817 99.4211 45.6518 99.5424 45.5863 99.6452C45.5486 99.7043 45.5184 99.7671 45.4943 99.829C45.416 100.03 45.3931 100.248 45.4225 100.462L45.5314 101.256C45.5314 102.397 46.1406 103.173 46.6587 103.575C46.9293 103.785 47.263 103.899 47.6067 103.899C47.8732 103.899 48.1337 103.83 48.3634 103.701C48.297 103.664 48.2329 103.622 48.1722 103.575Z" fill="#FCAD6D"/>
<path d="M49.7386 87.7668C49.7436 88.0451 49.7162 88.3301 49.6864 88.5203C49.546 89.1392 49.3432 89.6782 49.0839 90.1221C48.9662 90.3232 48.8195 90.5063 48.6478 90.6658L48.6257 90.6862V90.8248C48.6257 90.9686 48.6817 91.1014 48.7767 91.2237C49.3089 91.1915 49.7613 91.0838 50.1179 90.961C50.5472 90.8131 50.7351 90.3043 50.5007 89.9154C49.9484 88.9999 50.0307 87.7666 50.0307 87.7666H49.7386V87.7668Z" fill="#2A428C"/>
<path d="M50.5007 89.9162C50.4488 89.8302 50.4026 89.7416 50.3614 89.6514C49.7187 90.0243 49.4617 89.496 49.4617 89.496C49.4617 89.496 49.4452 89.4717 49.4147 89.4263C49.3176 89.6787 49.2072 89.9115 49.0839 90.1227C48.9662 90.3239 48.8195 90.5069 48.6478 90.6664L48.6257 90.6868V90.8254C48.6257 90.9692 48.6817 91.102 48.7767 91.2244C49.3089 91.1921 49.7613 91.0845 50.1179 90.9616C50.5472 90.8138 50.7351 90.3049 50.5007 89.9162Z" fill="#1C2E7A"/>
<path d="M45.0903 90.9608C45.4469 91.0837 45.8994 91.1913 46.4316 91.2236C46.5268 91.1012 46.5825 90.9683 46.5825 90.8246V90.6544L46.5614 90.6342C46.4042 90.4824 46.2687 90.3101 46.1588 90.1219C45.8992 89.6777 45.6966 89.139 45.5564 88.5207C45.5257 88.3414 45.4978 88.0518 45.504 87.7666H45.1775C45.1775 87.7666 45.2599 88.9999 44.7076 89.9154C44.4732 90.3041 44.661 90.813 45.0903 90.9608Z" fill="#1C2E7A"/>
<path d="M48.8685 84.2125C48.5376 84.0418 48.1262 83.9233 47.6214 83.9233C47.1167 83.9233 46.7051 84.0418 46.3742 84.2125C45.6499 84.5862 45.2035 85.3283 45.2035 86.129V87.1167V87.1171C45.3178 87.1143 45.4442 87.1517 45.5256 87.2061C45.5556 87.108 45.5966 87.0229 45.6522 86.9603C45.7021 86.904 45.7336 86.8343 45.7357 86.7598C45.7443 86.4746 45.819 85.8007 46.3212 85.5428C46.4611 85.471 46.632 85.5258 46.7106 85.662C47.0131 86.1864 47.7186 86.8775 49.2877 86.5829C49.399 86.562 49.5036 86.6448 49.507 86.758V86.7598C49.5093 86.8343 49.5406 86.9039 49.5905 86.9603C49.6459 87.0229 49.6871 87.1078 49.7171 87.2061C49.7985 87.1517 49.9249 87.1143 50.0392 87.1171V87.1167V86.129C50.0392 85.3283 49.5928 84.5862 48.8685 84.2125Z" fill="#2A428C"/>
<path d="M47.5913 86.407C46.8136 84.9214 48.2747 83.9958 48.2747 83.9958C48.0768 83.9499 47.8596 83.9233 47.6216 83.9233C47.117 83.9233 46.7054 84.0418 46.3745 84.2125C45.6502 84.5862 45.2037 85.3283 45.2037 86.129V87.1167V87.1171C45.318 87.1143 45.4443 87.1517 45.5258 87.2061C45.5558 87.108 45.5969 87.0229 45.6525 86.9603C45.7024 86.904 45.7338 86.8343 45.7359 86.7598C45.7445 86.4746 45.8193 85.8007 46.3215 85.5428C46.4614 85.471 46.6322 85.5258 46.7109 85.662C46.8744 85.9455 47.1562 86.2773 47.6279 86.4762C47.6154 86.4532 47.6033 86.43 47.5913 86.407Z" fill="#1C2E7A"/>
<path d="M45.5058 88.5305C45.5058 88.5305 45.3746 87.7005 45.5257 87.2062C45.3887 87.1148 45.1238 87.0702 45.0049 87.1868C44.761 87.4251 44.9397 87.7851 45.0251 88.0124C45.0514 88.0823 45.0682 88.1528 45.076 88.2236C45.0927 88.3773 45.176 88.6023 45.5215 88.597C45.5163 88.5747 45.511 88.553 45.5058 88.5305Z" fill="#FD995B"/>
<path d="M50.238 87.1866C50.1189 87.0703 49.8541 87.1148 49.7172 87.2061C49.8682 87.7004 49.7371 88.5304 49.7371 88.5304C49.7319 88.5529 49.7267 88.5746 49.7214 88.5968C50.067 88.6022 50.1503 88.3772 50.1669 88.2235C50.1745 88.1528 50.1915 88.0821 50.2178 88.0123C50.3032 87.7848 50.4818 87.4249 50.238 87.1866Z" fill="#FCAD6D"/>
<path d="M45.4219 91.9089C45.8089 92.5711 46.3947 93.0862 47.1165 93.3984C47.4397 93.5381 47.8103 93.5381 48.1335 93.3984C48.8551 93.0862 49.4411 92.5711 49.8281 91.9089C49.8426 91.8838 49.8568 91.8577 49.8709 91.8316C49.2636 91.5983 48.6982 91.266 48.6982 90.8309C48.6982 90.6792 48.6982 90.7247 48.6982 90.6265C48.4338 90.8628 47.9803 91.164 47.6068 91.1731C47.2333 91.164 46.7799 90.8628 46.5155 90.6265C46.5155 90.9084 46.5904 91.2477 45.7042 91.6779C45.5996 91.7287 45.4879 91.7763 45.3733 91.8209C45.3893 91.8506 45.4052 91.8804 45.4219 91.9089Z" fill="#FCAD6D"/>
<path d="M47.6068 91.1731C47.2333 91.164 46.7799 90.8628 46.5155 90.6265C46.5155 90.9084 46.5904 91.2478 45.7042 91.6779C45.5998 91.7287 45.4879 91.7763 45.3733 91.8209C45.3893 91.8504 45.4052 91.8802 45.4219 91.9088C45.6983 92.3818 46.0777 92.7778 46.534 93.0803C47.3225 92.5481 47.5577 91.7277 47.6209 91.1713C47.6164 91.1716 47.6115 91.1729 47.6068 91.1731Z" fill="#FD995B"/>
<path d="M51.3302 92.2454C51.2475 92.2232 50.4632 92.0737 49.772 91.7931C49.7517 91.8296 49.7321 91.8672 49.7112 91.9028C49.3447 92.5302 48.7895 93.0182 48.1058 93.3138C47.7996 93.4463 47.4485 93.4463 47.1423 93.3138C46.4586 93.018 45.9034 92.5302 45.5369 91.9028C45.514 91.8638 45.4926 91.8228 45.4704 91.7827C44.7618 92.0747 43.8871 92.2444 43.8834 92.2454C43.7337 92.2741 43.5003 92.3392 43.2534 92.4811C44.3194 93.6822 45.8746 94.4392 47.6067 94.4392C49.3388 94.4392 50.894 93.6822 51.96 92.4811C51.7133 92.3392 51.48 92.2741 51.3302 92.2454Z" fill="#FC90CE"/>
<path d="M49.5243 86.7599C49.5232 86.7236 49.5209 86.6798 49.5167 86.6309C49.5039 86.6126 49.4888 86.5957 49.4708 86.5813C49.4167 86.5377 49.3463 86.5202 49.2781 86.533C47.782 86.8137 47.0805 86.2006 46.7553 85.637C46.696 85.5341 46.5931 85.472 46.484 85.4619C46.3916 85.4875 46.3068 85.5259 46.2298 85.5772C45.7914 85.8691 45.7261 86.5017 45.7185 86.7601C45.7165 86.828 45.6891 86.8935 45.6392 86.9496C45.3648 87.2589 45.4247 88.1627 45.4888 88.5347C45.6306 89.1608 45.836 89.7066 46.0993 90.1572C46.3666 90.6147 46.7714 90.9704 47.2699 91.1862C47.4931 91.2828 47.7492 91.2828 47.9725 91.1862C48.4709 90.9704 48.8757 90.6147 49.1431 90.1572C49.4063 89.7067 49.6117 89.1609 49.7539 88.5336C49.8153 88.1424 49.881 87.2625 49.6033 86.9494C49.5537 86.8933 49.5263 86.8277 49.5243 86.7599Z" fill="#F9BA8F"/>
<path d="M47.9344 90.1573C47.6711 89.7066 47.4656 89.1608 47.3239 88.5347C47.2599 88.1627 47.1997 87.2589 47.4743 86.9496C47.5241 86.8935 47.5515 86.828 47.5536 86.7601C47.5562 86.6748 47.5651 86.5487 47.5915 86.4077C47.1809 86.2193 46.9201 85.922 46.7557 85.637C46.6964 85.5341 46.5934 85.472 46.4843 85.4619C46.3919 85.4875 46.3072 85.5259 46.2301 85.5772C45.7918 85.8691 45.7265 86.5017 45.7189 86.7601C45.7169 86.828 45.6895 86.8935 45.6396 86.9496C45.3651 87.2589 45.4251 88.1627 45.4891 88.5347C45.631 89.1608 45.8364 89.7066 46.0997 90.1573C46.367 90.6147 46.7718 90.9704 47.2702 91.1862C47.4935 91.2828 47.7496 91.2828 47.9728 91.1862C48.1787 91.0972 48.3682 90.9839 48.5389 90.8498C48.2961 90.659 48.0913 90.4259 47.9344 90.1573Z" fill="#FCAD6D"/>
<path d="M95.4295 110.542C95.0218 109.991 94.6002 109.517 94.2027 109.122C93.487 108.409 92.2651 108.927 92.2651 109.937V112.408C93.3506 111.834 94.4068 111.212 95.4295 110.542Z" fill="#E80054"/>
<path d="M46.1329 79.6008C45.9296 79.4429 45.7174 79.2481 45.5135 79.0166C45.0711 79.1513 44.6569 79.3348 44.2595 79.5589C44.0511 79.6764 43.957 79.745 43.7802 79.7594C43.5941 79.7746 43.4247 79.8079 43.27 79.8558C43.7264 80.3655 44.2715 80.7935 44.8806 81.1172C45.1082 80.9298 45.4266 80.7596 45.8728 80.637C46.3399 80.5087 46.6829 80.2788 46.9353 80.0073C46.6461 79.9234 46.3731 79.7874 46.1329 79.6008Z" fill="#2A428C"/>
<path d="M46.1362 93.3022C46.315 93.2222 46.4718 93.1289 46.611 93.0269C46.1693 92.7387 45.8029 92.358 45.5369 91.9028C45.514 91.8638 45.4925 91.8228 45.4704 91.7827C44.7618 92.0747 43.8871 92.2444 43.8834 92.2454C43.7337 92.2741 43.5003 92.3392 43.2534 92.4811C43.7795 93.0738 44.425 93.5577 45.1517 93.8966C45.3775 93.7036 45.6932 93.5001 46.1362 93.3022Z" fill="#F964B2"/>
<path d="M46.1329 104.888C45.9296 104.73 45.7174 104.535 45.5137 104.304C45.2835 104.374 45.0611 104.458 44.8445 104.553C45.3256 105.062 45.8214 105.557 46.3283 106.041C46.6324 105.847 46.8574 105.595 47.0232 105.32C46.7013 105.24 46.3977 105.094 46.1329 104.888Z" fill="#2A428C"/>
</svg>
