<svg xmlns="http://www.w3.org/2000/svg" version="1.1" xmlns:xlink="http://www.w3.org/1999/xlink" xmlns:svgjs="http://svgjs.com/svgjs" width="50" height="50" x="0" y="0" viewBox="0 0 512 512" style="enable-background:new 0 0 512 512" xml:space="preserve" class=""><g><path fill="#FFDD83" d="M87.661 328.145H71.629c-22.136 0-40.081-17.945-40.081-40.081 0-13.282 10.767-24.048 24.048-24.048h32.065z" data-original="#50aaa0" class=""></path><path fill="#FFDD83" d="m475.756 82.965-70.772-70.769a16.031 16.031 0 0 0-11.336-4.695H95.677c-8.854 0-16.032 7.178-16.032 16.032v252.801L95.677 504.5h368.742c8.854 0 16.032-7.178 16.032-16.032V94.302a16.028 16.028 0 0 0-4.695-11.337z" data-original="#ebffb9" class=""></path><path fill="#FFDD83" d="M368.226 256H191.871a8.016 8.016 0 0 1-8.016-8.016v-104.21a8.016 8.016 0 0 1 8.016-8.016h176.355a8.016 8.016 0 0 1 8.016 8.016v104.21a8.016 8.016 0 0 1-8.016 8.016z" data-original="#8ce1a4" class=""></path><path fill="#FFDD83" d="M103.694 464.419V7.5h-8.016c-8.854 0-16.032 7.178-16.032 16.032v464.935c0 8.854 7.179 16.032 16.032 16.032H464.42c8.854 0 16.032-7.178 16.032-16.032v-8.016H119.726c-8.84.001-16.032-7.192-16.032-16.032zM480.452 94.302c0-4.252-1.689-8.33-4.696-11.337l-70.772-70.769a16.031 16.031 0 0 0-11.336-4.695h-1.373v80.161a8.016 8.016 0 0 0 8.016 8.016h80.161z" data-original="#cdfaa0" class=""></path><path fill="#FFDD83" d="M304.097 312.113h-248.5c-13.282 0-24.048-10.767-24.048-24.048v144.29c0 13.282 10.767 24.048 24.048 24.048h248.5c8.854 0 16.032-7.178 16.032-16.032V328.145c0-8.855-7.178-16.032-16.032-16.032z" data-original="#8ce1a4" class=""></path><g fill="#78C2A4"><path d="M55.597 456.403h248.5c8.854 0 16.032-7.178 16.032-16.032v-8.016h-248.5c-8.84 0-16.032-7.192-16.032-16.032v-104.21c-13.282 0-24.048-10.767-24.048-24.048v144.29c-.001 13.281 10.766 24.048 24.048 24.048zM223.935 231.952c-8.854 0-16.032-7.178-16.032-16.032v-80.161h-16.032a8.016 8.016 0 0 0-8.016 8.016v104.21a8.016 8.016 0 0 0 8.016 8.016h176.355a8.016 8.016 0 0 0 8.016-8.016v-16.032H223.935z" fill="#FFDD83" data-original="#78c2a4" class=""></path></g><path d="m481.059 77.662-70.772-70.77A23.381 23.381 0 0 0 393.647 0H95.677C82.702 0 72.145 10.557 72.145 23.532v232.984H55.597c-17.396 0-31.548 14.153-31.548 31.548v144.29c0 17.396 14.152 31.549 31.548 31.549h248.5c12.976 0 23.532-10.557 23.532-23.532V328.146c0-12.976-10.557-23.533-23.532-23.533h-248.5c-9.125 0-16.548-7.423-16.548-16.548s7.423-16.548 16.548-16.548h16.548v8.535a7.5 7.5 0 0 0 15 0V23.532c0-4.705 3.828-8.532 8.532-8.532h289.097v72.661c0 8.556 6.96 15.517 15.516 15.517h72.661v385.29c0 4.705-3.828 8.532-8.532 8.532H95.677c-4.705 0-8.532-3.827-8.532-8.532a7.5 7.5 0 0 0-15 0c0 12.976 10.557 23.532 23.532 23.532h368.742c12.976 0 23.532-10.557 23.532-23.532V94.302a23.374 23.374 0 0 0-6.892-16.64zM55.597 319.613h248.5c4.705 0 8.532 3.828 8.532 8.533v112.226c0 4.705-3.828 8.532-8.532 8.532h-248.5c-9.125 0-16.548-7.424-16.548-16.549v-117.44a31.343 31.343 0 0 0 16.548 4.698zM399.774 87.661V17.593l70.587 70.585H400.29a.517.517 0 0 1-.516-.517z" fill="#FFFFFF" data-original="#000000" class=""></path><path d="M167.837 423.66c.535.092.969.166 8.14.166 3.461 0 8.492-.017 15.859-.059 4.142-.022 7.481-3.399 7.458-7.542s-3.419-7.445-7.542-7.458c-5.238.029-10.862.05-15.148.054v-57.297a7.5 7.5 0 0 0-15 0v64.743a7.5 7.5 0 0 0 6.233 7.393zM243.934 423.822c13.365 0 24.583-8.506 26.676-20.225 1.57-8.796-2.453-20.297-18.454-26.199-8.059-2.973-15.555-6.212-17.749-7.174-2.068-1.608-2.001-3.879-1.867-4.819.181-1.258 1.085-4.328 5.575-5.681 9.448-2.847 18.143 4.038 18.384 4.232a7.5 7.5 0 0 0 9.616-11.511c-.601-.505-14.93-12.323-32.327-7.083-8.719 2.626-14.887 9.49-16.096 17.911-1.132 7.888 2.286 15.475 8.92 19.8.332.216.679.406 1.041.567.375.167 9.28 4.131 19.311 7.831 2.982 1.1 9.818 4.227 8.878 9.489-.69 3.864-5.333 7.861-11.91 7.861-6.606 0-12.97-2.669-17.022-7.141a7.5 7.5 0 1 0-11.115 10.073c6.85 7.558 17.368 12.069 28.139 12.069zM83.18 422.454a7.465 7.465 0 0 0 4.313 1.369 7.49 7.49 0 0 0 6.138-3.182l18.309-25.99 18.281 25.986a7.49 7.49 0 0 0 6.141 3.186 7.5 7.5 0 0 0 6.128-11.816l-21.373-30.381 18.162-25.781a7.5 7.5 0 0 0-12.263-8.638l-15.067 21.388-15.043-21.385a7.5 7.5 0 0 0-12.269 8.63l18.135 25.779-21.404 30.383a7.501 7.501 0 0 0 1.812 10.452zM383.742 143.774c0-8.556-6.96-15.517-15.516-15.517H191.871c-8.556 0-15.516 6.961-15.516 15.517v104.209c0 8.556 6.96 15.516 15.516 15.516h176.354c8.556 0 15.516-6.96 15.516-15.516V143.774zm-128.258 64.645v-25.081h49.129v25.081zm49.129 15V248.5h-49.129v-25.081zm-113.258-40.08h49.129v25.081h-49.129zm64.129-15v-25.081h49.129v25.081zm64.129 15h49.129v25.081h-49.129zm49.129-39.565v24.564h-49.129v-25.081h48.613a.518.518 0 0 1 .516.517zm-176.871-.516h48.613v25.081h-49.129v-24.564c0-.286.231-.517.516-.517zm-.516 104.726V223.42h49.129v25.08h-48.613a.516.516 0 0 1-.516-.516zm176.871.516h-48.613v-25.081h49.129v24.564a.517.517 0 0 1-.516.517z" fill="#FFFFFF" data-original="#000000" class=""></path></g></svg>